G04 #@! TF.GenerationSoftware,KiCad,Pcbnew,(5.1.5)-2*
G04 #@! TF.CreationDate,2020-01-16T23:06:53-08:00*
G04 #@! TF.ProjectId,Jason's PCB,4a61736f-6e27-4732-9050-43422e6b6963,rev?*
G04 #@! TF.SameCoordinates,Original*
G04 #@! TF.FileFunction,Copper,L2,Bot*
G04 #@! TF.FilePolarity,Positive*
%FSLAX46Y46*%
G04 Gerber Fmt 4.6, Leading zero omitted, Abs format (unit mm)*
G04 Created by KiCad (PCBNEW (5.1.5)-2) date 2020-01-16 23:06:53*
%MOMM*%
%LPD*%
G04 APERTURE LIST*
%ADD10R,1.752600X1.752600*%
%ADD11C,1.752600*%
%ADD12C,2.000000*%
%ADD13R,3.200000X2.000000*%
%ADD14R,2.000000X2.000000*%
%ADD15C,2.250000*%
%ADD16C,1.905000*%
%ADD17R,1.905000X1.905000*%
%ADD18C,2.100000*%
%ADD19C,0.254000*%
G04 APERTURE END LIST*
D10*
X120904000Y-17526000D03*
D11*
X120904000Y-20066000D03*
X120904000Y-22606000D03*
X120904000Y-25146000D03*
X120904000Y-27686000D03*
X120904000Y-30226000D03*
X120904000Y-32766000D03*
X120904000Y-35306000D03*
X120904000Y-37846000D03*
X120904000Y-40386000D03*
X120904000Y-42926000D03*
X136144000Y-45466000D03*
X136144000Y-42926000D03*
X136144000Y-40386000D03*
X136144000Y-37846000D03*
X136144000Y-35306000D03*
X136144000Y-32766000D03*
X136144000Y-30226000D03*
X136144000Y-27686000D03*
X136144000Y-25146000D03*
X136144000Y-22606000D03*
X136144000Y-20066000D03*
X121132600Y-45466000D03*
X136144000Y-17526000D03*
X133604000Y-45466000D03*
X131064000Y-45466000D03*
X128524000Y-45466000D03*
X125984000Y-45466000D03*
X123444000Y-45466000D03*
D12*
X135778000Y-87463000D03*
X135778000Y-82463000D03*
D13*
X128778000Y-90563000D03*
X128778000Y-79363000D03*
D12*
X121278000Y-87463000D03*
X121278000Y-84963000D03*
D14*
X121278000Y-82463000D03*
D15*
X112014000Y-22733000D03*
X105664000Y-25273000D03*
D16*
X108204000Y-32893000D03*
D17*
X110744000Y-32893000D03*
D14*
X121278000Y-63413000D03*
D12*
X121278000Y-65913000D03*
X121278000Y-68413000D03*
D13*
X128778000Y-60313000D03*
X128778000Y-71513000D03*
D12*
X135778000Y-63413000D03*
X135778000Y-68413000D03*
D17*
X91694000Y-51943000D03*
D16*
X89154000Y-51943000D03*
D15*
X86614000Y-44323000D03*
X92964000Y-41783000D03*
D17*
X110744000Y-90043000D03*
D16*
X108204000Y-90043000D03*
D15*
X105664000Y-82423000D03*
X112014000Y-79883000D03*
D17*
X91694000Y-90043000D03*
D16*
X89154000Y-90043000D03*
D15*
X86614000Y-82423000D03*
X92964000Y-79883000D03*
D17*
X110744000Y-70993000D03*
D16*
X108204000Y-70993000D03*
D15*
X105664000Y-63373000D03*
X112014000Y-60833000D03*
D17*
X91694000Y-70993000D03*
D16*
X89154000Y-70993000D03*
D15*
X86614000Y-63373000D03*
X92964000Y-60833000D03*
D17*
X110744000Y-51943000D03*
D16*
X108204000Y-51943000D03*
D15*
X105664000Y-44323000D03*
X112014000Y-41783000D03*
X92964000Y-22733000D03*
X86614000Y-25273000D03*
D16*
X89154000Y-32893000D03*
D17*
X91694000Y-32893000D03*
D18*
X139700000Y-16668750D03*
X79375000Y-16668750D03*
X139700000Y-96043750D03*
X79375000Y-96043750D03*
D19*
X120904000Y-30226000D02*
X119506253Y-31623747D01*
X119506253Y-32385747D02*
X115443000Y-36449000D01*
X119506253Y-31623747D02*
X119506253Y-32385747D01*
X86614000Y-26863990D02*
X86614000Y-25273000D01*
X86614000Y-32246662D02*
X86614000Y-26863990D01*
X90816338Y-36449000D02*
X86614000Y-32246662D01*
X115443000Y-36449000D02*
X90816338Y-36449000D01*
X120904000Y-32766000D02*
X119694309Y-33975691D01*
X118696644Y-33975691D02*
X118430691Y-34241644D01*
X119694309Y-33975691D02*
X118696644Y-33975691D01*
X118412356Y-34241644D02*
X115643010Y-37010990D01*
X118430691Y-34241644D02*
X118412356Y-34241644D01*
X92262010Y-37084000D02*
X94869000Y-37084000D01*
X86614000Y-42732010D02*
X92262010Y-37084000D01*
X86614000Y-44323000D02*
X86614000Y-42732010D01*
X115643010Y-37010990D02*
X94869000Y-37084000D01*
X120027701Y-34429701D02*
X120904000Y-35306000D01*
X105664000Y-42732010D02*
X110931010Y-37465000D01*
X105664000Y-44323000D02*
X105664000Y-42732010D01*
X118884701Y-34429701D02*
X120027701Y-34429701D01*
X110931010Y-37465000D02*
X115849402Y-37465000D01*
X115849402Y-37465000D02*
X118884701Y-34429701D01*
X120904000Y-37846000D02*
X120872250Y-37846000D01*
X86614000Y-63373000D02*
X92529010Y-57457990D01*
X92529010Y-57457990D02*
X115635944Y-57457990D01*
X117255972Y-55837962D02*
X117255972Y-47401659D01*
X115635944Y-57457990D02*
X117255972Y-55837962D01*
X120027701Y-38722299D02*
X120904000Y-37846000D01*
X118884730Y-39865270D02*
X120027701Y-38722299D01*
X118884730Y-45772901D02*
X118884730Y-39865270D01*
X117255972Y-47401659D02*
X118884730Y-45772901D01*
X119338740Y-41951260D02*
X120904000Y-40386000D01*
X119338740Y-46001128D02*
X119338740Y-41951260D01*
X105664000Y-63373000D02*
X111125000Y-57912000D01*
X111125000Y-57912000D02*
X115824000Y-57912000D01*
X115824000Y-57912000D02*
X117709982Y-56026018D01*
X117709982Y-56026018D02*
X117709982Y-47629886D01*
X117709982Y-47629886D02*
X119338740Y-46001128D01*
X120904000Y-42926000D02*
X119792750Y-44037250D01*
X119792750Y-44037250D02*
X119792750Y-46189184D01*
X118163991Y-64696991D02*
X118227490Y-64760490D01*
X119792750Y-46189184D02*
X118163991Y-47817943D01*
X118163991Y-47817943D02*
X118163991Y-64696991D01*
X118227490Y-64760490D02*
X118227490Y-69217444D01*
X118227490Y-69217444D02*
X112587944Y-74856990D01*
X94180010Y-74856990D02*
X86614000Y-82423000D01*
X112587944Y-74856990D02*
X94180010Y-74856990D01*
X120256301Y-46342299D02*
X120256301Y-46367699D01*
X121132600Y-45466000D02*
X120256301Y-46342299D01*
X105664000Y-82423000D02*
X105664000Y-80391000D01*
X105664000Y-80391000D02*
X110744000Y-75311000D01*
X110744000Y-75311000D02*
X112776000Y-75311000D01*
X118681500Y-69405500D02*
X118681500Y-47942500D01*
X120256301Y-46367699D02*
X118681500Y-47942500D01*
X112776000Y-75311000D02*
X118681500Y-69405500D01*
X118681500Y-47942500D02*
X118618000Y-48006000D01*
X105664000Y-32258000D02*
X105664000Y-25273000D01*
X118868467Y-29721533D02*
X118868467Y-32381467D01*
X118868467Y-32381467D02*
X115435934Y-35814000D01*
X115435934Y-35814000D02*
X109220000Y-35814000D01*
X120904000Y-27686000D02*
X118868467Y-29721533D01*
X109220000Y-35814000D02*
X105664000Y-32258000D01*
X121261500Y-63413000D02*
X120586500Y-62738000D01*
X121278000Y-63413000D02*
X121261500Y-63413000D01*
X121953000Y-62738000D02*
X121278000Y-63413000D01*
X122174000Y-62738000D02*
X121953000Y-62738000D01*
X121753000Y-63413000D02*
X121278000Y-63413000D01*
X124587000Y-60579000D02*
X121753000Y-63413000D01*
X123444000Y-45466000D02*
X124587000Y-46609000D01*
X124587000Y-46609000D02*
X124587000Y-60579000D01*
X125107701Y-64583299D02*
X122277999Y-67413001D01*
X122277999Y-67413001D02*
X121278000Y-68413000D01*
X125107701Y-46342299D02*
X125107701Y-64583299D01*
X125984000Y-45466000D02*
X125107701Y-46342299D01*
X136652000Y-45466000D02*
X137255250Y-46069250D01*
X136144000Y-45466000D02*
X136652000Y-45466000D01*
X137255250Y-46069250D02*
X137255250Y-61944250D01*
X137246750Y-61944250D02*
X135778000Y-63413000D01*
X137255250Y-61944250D02*
X137246750Y-61944250D01*
X120693357Y-81681143D02*
X121278000Y-82265786D01*
X121278000Y-82265786D02*
X121278000Y-82463000D01*
X131064000Y-45466000D02*
X129413000Y-47117000D01*
X126746000Y-47117000D02*
X125561711Y-48301289D01*
X129413000Y-47117000D02*
X126746000Y-47117000D01*
X122532000Y-82463000D02*
X121278000Y-82463000D01*
X125561711Y-79433289D02*
X122532000Y-82463000D01*
X125561711Y-48301289D02*
X125561711Y-79433289D01*
X133604000Y-45466000D02*
X131498990Y-47571010D01*
X131498990Y-47571010D02*
X126934056Y-47571010D01*
X126934056Y-47571010D02*
X126015721Y-48489345D01*
X126015721Y-79621346D02*
X122809000Y-82828067D01*
X126015721Y-48489345D02*
X126015721Y-79621346D01*
X122809000Y-85932000D02*
X121278000Y-87463000D01*
X122809000Y-82828067D02*
X122809000Y-85932000D01*
X137709260Y-80531740D02*
X135778000Y-82463000D01*
X136144000Y-42926000D02*
X137709260Y-44491260D01*
X137709260Y-44491260D02*
X137709260Y-80531740D01*
M02*
