M48
; DRILL file {KiCad (5.1.5)-2} date 1/16/2020 11:07:06 PM
; FORMAT={-:-/ absolute / inch / decimal}
; #@! TF.CreationDate,2020-01-16T23:07:06-08:00
; #@! TF.GenerationSoftware,Kicad,Pcbnew,(5.1.5)-2
; #@! TF.FileFunction,Plated,1,2,PTH
FMAT,2
INCH
T1C0.0394
T2C0.0409
T3C0.0430
T4C0.0579
T5C0.0787
%
G90
G05
T1
X4.7747Y-2.4966
X4.7747Y-2.595
X4.7747Y-2.6934
X5.3456Y-2.4966
X5.3456Y-2.6934
X4.7747Y-3.2466
X4.7747Y-3.345
X4.7747Y-3.4434
X5.3456Y-3.2466
X5.3456Y-3.4434
T2
X4.26Y-3.545
X4.36Y-3.545
X3.51Y-2.795
X3.61Y-2.795
X3.51Y-1.295
X3.61Y-1.295
X3.51Y-2.045
X3.61Y-2.045
X4.26Y-2.045
X4.36Y-2.045
X4.26Y-2.795
X4.36Y-2.795
X4.26Y-1.295
X4.36Y-1.295
X3.51Y-3.545
X3.61Y-3.545
T3
X4.76Y-0.69
X4.76Y-0.79
X4.76Y-0.89
X4.76Y-0.99
X4.76Y-1.09
X4.76Y-1.19
X4.76Y-1.29
X4.76Y-1.39
X4.76Y-1.49
X4.76Y-1.59
X4.76Y-1.69
X4.769Y-1.79
X4.86Y-1.79
X4.96Y-1.79
X5.06Y-1.79
X5.16Y-1.79
X5.26Y-1.79
X5.36Y-0.69
X5.36Y-0.79
X5.36Y-0.89
X5.36Y-0.99
X5.36Y-1.09
X5.36Y-1.19
X5.36Y-1.29
X5.36Y-1.39
X5.36Y-1.49
X5.36Y-1.59
X5.36Y-1.69
X5.36Y-1.79
T4
X4.16Y-2.495
X4.41Y-2.395
X4.16Y-0.995
X4.41Y-0.895
X3.41Y-3.245
X3.66Y-3.145
X4.16Y-3.245
X4.41Y-3.145
X3.41Y-2.495
X3.66Y-2.395
X3.41Y-0.995
X3.66Y-0.895
X3.41Y-1.745
X3.66Y-1.645
X4.16Y-1.745
X4.41Y-1.645
T5
X3.125Y-0.6562
X3.125Y-3.7812
X5.5Y-0.6562
X5.5Y-3.7812
T0
M30
