G04 #@! TF.GenerationSoftware,KiCad,Pcbnew,(5.1.5)-2*
G04 #@! TF.CreationDate,2020-01-16T23:06:53-08:00*
G04 #@! TF.ProjectId,Jason's PCB,4a61736f-6e27-4732-9050-43422e6b6963,rev?*
G04 #@! TF.SameCoordinates,Original*
G04 #@! TF.FileFunction,Legend,Top*
G04 #@! TF.FilePolarity,Positive*
%FSLAX46Y46*%
G04 Gerber Fmt 4.6, Leading zero omitted, Abs format (unit mm)*
G04 Created by KiCad (PCBNEW (5.1.5)-2) date 2020-01-16 23:06:53*
%MOMM*%
%LPD*%
G04 APERTURE LIST*
%ADD10C,0.381000*%
%ADD11C,0.150000*%
%ADD12C,0.120000*%
G04 APERTURE END LIST*
D10*
X119634000Y-16256000D02*
X119634000Y-46736000D01*
X119634000Y-46736000D02*
X137414000Y-46736000D01*
X137414000Y-46736000D02*
X137414000Y-16256000D01*
X122174000Y-16256000D02*
X122174000Y-18796000D01*
X122174000Y-18796000D02*
X119634000Y-18796000D01*
D11*
G36*
X133455568Y-22135360D02*
G01*
X133455568Y-22435360D01*
X133355568Y-22435360D01*
X133355568Y-22135360D01*
X133455568Y-22135360D01*
G37*
X133455568Y-22135360D02*
X133455568Y-22435360D01*
X133355568Y-22435360D01*
X133355568Y-22135360D01*
X133455568Y-22135360D01*
G36*
X133255568Y-22535360D02*
G01*
X133255568Y-22635360D01*
X133155568Y-22635360D01*
X133155568Y-22535360D01*
X133255568Y-22535360D01*
G37*
X133255568Y-22535360D02*
X133255568Y-22635360D01*
X133155568Y-22635360D01*
X133155568Y-22535360D01*
X133255568Y-22535360D01*
G36*
X133455568Y-22135360D02*
G01*
X133455568Y-22235360D01*
X132955568Y-22235360D01*
X132955568Y-22135360D01*
X133455568Y-22135360D01*
G37*
X133455568Y-22135360D02*
X133455568Y-22235360D01*
X132955568Y-22235360D01*
X132955568Y-22135360D01*
X133455568Y-22135360D01*
G36*
X133055568Y-22135360D02*
G01*
X133055568Y-22935360D01*
X132955568Y-22935360D01*
X132955568Y-22135360D01*
X133055568Y-22135360D01*
G37*
X133055568Y-22135360D02*
X133055568Y-22935360D01*
X132955568Y-22935360D01*
X132955568Y-22135360D01*
X133055568Y-22135360D01*
G36*
X133455568Y-22735360D02*
G01*
X133455568Y-22935360D01*
X133355568Y-22935360D01*
X133355568Y-22735360D01*
X133455568Y-22735360D01*
G37*
X133455568Y-22735360D02*
X133455568Y-22935360D01*
X133355568Y-22935360D01*
X133355568Y-22735360D01*
X133455568Y-22735360D01*
D10*
X137414000Y-16256000D02*
X137414000Y-13716000D01*
X137414000Y-13716000D02*
X119634000Y-13716000D01*
X119634000Y-13716000D02*
X119634000Y-16256000D01*
X122174000Y-16256000D02*
X119634000Y-16256000D01*
D12*
X131778000Y-84963000D02*
G75*
G03X131778000Y-84963000I-3000000J0D01*
G01*
X130778000Y-79063000D02*
X134878000Y-79063000D01*
X134878000Y-90863000D02*
X130778000Y-90863000D01*
X126778000Y-90863000D02*
X122678000Y-90863000D01*
X126778000Y-79063000D02*
X122678000Y-79063000D01*
X122678000Y-79063000D02*
X122678000Y-90863000D01*
X121278000Y-81163000D02*
X120978000Y-80863000D01*
X120978000Y-80863000D02*
X121578000Y-80863000D01*
X121578000Y-80863000D02*
X121278000Y-81163000D01*
X134878000Y-79063000D02*
X134878000Y-81463000D01*
X134878000Y-83663000D02*
X134878000Y-86263000D01*
X134878000Y-88463000D02*
X134878000Y-90863000D01*
X128778000Y-84463000D02*
X128778000Y-85463000D01*
X128278000Y-84963000D02*
X129278000Y-84963000D01*
X128278000Y-65913000D02*
X129278000Y-65913000D01*
X128778000Y-65413000D02*
X128778000Y-66413000D01*
X134878000Y-69413000D02*
X134878000Y-71813000D01*
X134878000Y-64613000D02*
X134878000Y-67213000D01*
X134878000Y-60013000D02*
X134878000Y-62413000D01*
X121578000Y-61813000D02*
X121278000Y-62113000D01*
X120978000Y-61813000D02*
X121578000Y-61813000D01*
X121278000Y-62113000D02*
X120978000Y-61813000D01*
X122678000Y-60013000D02*
X122678000Y-71813000D01*
X126778000Y-60013000D02*
X122678000Y-60013000D01*
X126778000Y-71813000D02*
X122678000Y-71813000D01*
X134878000Y-71813000D02*
X130778000Y-71813000D01*
X130778000Y-60013000D02*
X134878000Y-60013000D01*
X131778000Y-65913000D02*
G75*
G03X131778000Y-65913000I-3000000J0D01*
G01*
D11*
X133661190Y-42868857D02*
X133775476Y-42906952D01*
X133813571Y-42945047D01*
X133851666Y-43021238D01*
X133851666Y-43135523D01*
X133813571Y-43211714D01*
X133775476Y-43249809D01*
X133699285Y-43287904D01*
X133394523Y-43287904D01*
X133394523Y-42487904D01*
X133661190Y-42487904D01*
X133737380Y-42526000D01*
X133775476Y-42564095D01*
X133813571Y-42640285D01*
X133813571Y-42716476D01*
X133775476Y-42792666D01*
X133737380Y-42830761D01*
X133661190Y-42868857D01*
X133394523Y-42868857D01*
X134156428Y-42564095D02*
X134194523Y-42526000D01*
X134270714Y-42487904D01*
X134461190Y-42487904D01*
X134537380Y-42526000D01*
X134575476Y-42564095D01*
X134613571Y-42640285D01*
X134613571Y-42716476D01*
X134575476Y-42830761D01*
X134118333Y-43287904D01*
X134613571Y-43287904D01*
X133718333Y-35248857D02*
X133451666Y-35248857D01*
X133451666Y-35667904D02*
X133451666Y-34867904D01*
X133832619Y-34867904D01*
X134061190Y-34867904D02*
X134594523Y-34867904D01*
X134251666Y-35667904D01*
X133718333Y-32708857D02*
X133451666Y-32708857D01*
X133451666Y-33127904D02*
X133451666Y-32327904D01*
X133832619Y-32327904D01*
X134480238Y-32327904D02*
X134327857Y-32327904D01*
X134251666Y-32366000D01*
X134213571Y-32404095D01*
X134137380Y-32518380D01*
X134099285Y-32670761D01*
X134099285Y-32975523D01*
X134137380Y-33051714D01*
X134175476Y-33089809D01*
X134251666Y-33127904D01*
X134404047Y-33127904D01*
X134480238Y-33089809D01*
X134518333Y-33051714D01*
X134556428Y-32975523D01*
X134556428Y-32785047D01*
X134518333Y-32708857D01*
X134480238Y-32670761D01*
X134404047Y-32632666D01*
X134251666Y-32632666D01*
X134175476Y-32670761D01*
X134137380Y-32708857D01*
X134099285Y-32785047D01*
X133718333Y-30168857D02*
X133451666Y-30168857D01*
X133451666Y-30587904D02*
X133451666Y-29787904D01*
X133832619Y-29787904D01*
X134518333Y-29787904D02*
X134137380Y-29787904D01*
X134099285Y-30168857D01*
X134137380Y-30130761D01*
X134213571Y-30092666D01*
X134404047Y-30092666D01*
X134480238Y-30130761D01*
X134518333Y-30168857D01*
X134556428Y-30245047D01*
X134556428Y-30435523D01*
X134518333Y-30511714D01*
X134480238Y-30549809D01*
X134404047Y-30587904D01*
X134213571Y-30587904D01*
X134137380Y-30549809D01*
X134099285Y-30511714D01*
X133661190Y-17468857D02*
X133775476Y-17506952D01*
X133813571Y-17545047D01*
X133851666Y-17621238D01*
X133851666Y-17735523D01*
X133813571Y-17811714D01*
X133775476Y-17849809D01*
X133699285Y-17887904D01*
X133394523Y-17887904D01*
X133394523Y-17087904D01*
X133661190Y-17087904D01*
X133737380Y-17126000D01*
X133775476Y-17164095D01*
X133813571Y-17240285D01*
X133813571Y-17316476D01*
X133775476Y-17392666D01*
X133737380Y-17430761D01*
X133661190Y-17468857D01*
X133394523Y-17468857D01*
X134346904Y-17087904D02*
X134423095Y-17087904D01*
X134499285Y-17126000D01*
X134537380Y-17164095D01*
X134575476Y-17240285D01*
X134613571Y-17392666D01*
X134613571Y-17583142D01*
X134575476Y-17735523D01*
X134537380Y-17811714D01*
X134499285Y-17849809D01*
X134423095Y-17887904D01*
X134346904Y-17887904D01*
X134270714Y-17849809D01*
X134232619Y-17811714D01*
X134194523Y-17735523D01*
X134156428Y-17583142D01*
X134156428Y-17392666D01*
X134194523Y-17240285D01*
X134232619Y-17164095D01*
X134270714Y-17126000D01*
X134346904Y-17087904D01*
X133375476Y-19666000D02*
X133299285Y-19627904D01*
X133185000Y-19627904D01*
X133070714Y-19666000D01*
X132994523Y-19742190D01*
X132956428Y-19818380D01*
X132918333Y-19970761D01*
X132918333Y-20085047D01*
X132956428Y-20237428D01*
X132994523Y-20313619D01*
X133070714Y-20389809D01*
X133185000Y-20427904D01*
X133261190Y-20427904D01*
X133375476Y-20389809D01*
X133413571Y-20351714D01*
X133413571Y-20085047D01*
X133261190Y-20085047D01*
X133756428Y-20427904D02*
X133756428Y-19627904D01*
X134213571Y-20427904D01*
X134213571Y-19627904D01*
X134594523Y-20427904D02*
X134594523Y-19627904D01*
X134785000Y-19627904D01*
X134899285Y-19666000D01*
X134975476Y-19742190D01*
X135013571Y-19818380D01*
X135051666Y-19970761D01*
X135051666Y-20085047D01*
X135013571Y-20237428D01*
X134975476Y-20313619D01*
X134899285Y-20389809D01*
X134785000Y-20427904D01*
X134594523Y-20427904D01*
X133723786Y-22899809D02*
X133838072Y-22937904D01*
X134028548Y-22937904D01*
X134104739Y-22899809D01*
X134142834Y-22861714D01*
X134180929Y-22785523D01*
X134180929Y-22709333D01*
X134142834Y-22633142D01*
X134104739Y-22595047D01*
X134028548Y-22556952D01*
X133876167Y-22518857D01*
X133799977Y-22480761D01*
X133761881Y-22442666D01*
X133723786Y-22366476D01*
X133723786Y-22290285D01*
X133761881Y-22214095D01*
X133799977Y-22176000D01*
X133876167Y-22137904D01*
X134066643Y-22137904D01*
X134180929Y-22176000D01*
X134409500Y-22137904D02*
X134866643Y-22137904D01*
X134638072Y-22937904D02*
X134638072Y-22137904D01*
X132918333Y-24707904D02*
X133185000Y-25507904D01*
X133451666Y-24707904D01*
X134175476Y-25431714D02*
X134137380Y-25469809D01*
X134023095Y-25507904D01*
X133946904Y-25507904D01*
X133832619Y-25469809D01*
X133756428Y-25393619D01*
X133718333Y-25317428D01*
X133680238Y-25165047D01*
X133680238Y-25050761D01*
X133718333Y-24898380D01*
X133756428Y-24822190D01*
X133832619Y-24746000D01*
X133946904Y-24707904D01*
X134023095Y-24707904D01*
X134137380Y-24746000D01*
X134175476Y-24784095D01*
X134975476Y-25431714D02*
X134937380Y-25469809D01*
X134823095Y-25507904D01*
X134746904Y-25507904D01*
X134632619Y-25469809D01*
X134556428Y-25393619D01*
X134518333Y-25317428D01*
X134480238Y-25165047D01*
X134480238Y-25050761D01*
X134518333Y-24898380D01*
X134556428Y-24822190D01*
X134632619Y-24746000D01*
X134746904Y-24707904D01*
X134823095Y-24707904D01*
X134937380Y-24746000D01*
X134975476Y-24784095D01*
X133718333Y-27628857D02*
X133451666Y-27628857D01*
X133451666Y-28047904D02*
X133451666Y-27247904D01*
X133832619Y-27247904D01*
X134480238Y-27514571D02*
X134480238Y-28047904D01*
X134289761Y-27209809D02*
X134099285Y-27781238D01*
X134594523Y-27781238D01*
X133661190Y-37788857D02*
X133775476Y-37826952D01*
X133813571Y-37865047D01*
X133851666Y-37941238D01*
X133851666Y-38055523D01*
X133813571Y-38131714D01*
X133775476Y-38169809D01*
X133699285Y-38207904D01*
X133394523Y-38207904D01*
X133394523Y-37407904D01*
X133661190Y-37407904D01*
X133737380Y-37446000D01*
X133775476Y-37484095D01*
X133813571Y-37560285D01*
X133813571Y-37636476D01*
X133775476Y-37712666D01*
X133737380Y-37750761D01*
X133661190Y-37788857D01*
X133394523Y-37788857D01*
X134613571Y-38207904D02*
X134156428Y-38207904D01*
X134385000Y-38207904D02*
X134385000Y-37407904D01*
X134308809Y-37522190D01*
X134232619Y-37598380D01*
X134156428Y-37636476D01*
X133661190Y-40328857D02*
X133775476Y-40366952D01*
X133813571Y-40405047D01*
X133851666Y-40481238D01*
X133851666Y-40595523D01*
X133813571Y-40671714D01*
X133775476Y-40709809D01*
X133699285Y-40747904D01*
X133394523Y-40747904D01*
X133394523Y-39947904D01*
X133661190Y-39947904D01*
X133737380Y-39986000D01*
X133775476Y-40024095D01*
X133813571Y-40100285D01*
X133813571Y-40176476D01*
X133775476Y-40252666D01*
X133737380Y-40290761D01*
X133661190Y-40328857D01*
X133394523Y-40328857D01*
X134118333Y-39947904D02*
X134613571Y-39947904D01*
X134346904Y-40252666D01*
X134461190Y-40252666D01*
X134537380Y-40290761D01*
X134575476Y-40328857D01*
X134613571Y-40405047D01*
X134613571Y-40595523D01*
X134575476Y-40671714D01*
X134537380Y-40709809D01*
X134461190Y-40747904D01*
X134232619Y-40747904D01*
X134156428Y-40709809D01*
X134118333Y-40671714D01*
X121959008Y-43960297D02*
X122006148Y-44054578D01*
X122006148Y-44101719D01*
X121982578Y-44172429D01*
X121911867Y-44243140D01*
X121841157Y-44266710D01*
X121794016Y-44266710D01*
X121723306Y-44243140D01*
X121534744Y-44054578D01*
X122029719Y-43559603D01*
X122194710Y-43724595D01*
X122218280Y-43795306D01*
X122218280Y-43842446D01*
X122194710Y-43913157D01*
X122147570Y-43960297D01*
X122076859Y-43983867D01*
X122029719Y-43983867D01*
X121959008Y-43960297D01*
X121794016Y-43795306D01*
X122760396Y-44290280D02*
X122524693Y-44054578D01*
X122265421Y-44266710D01*
X122312561Y-44266710D01*
X122383272Y-44290280D01*
X122501123Y-44408132D01*
X122524693Y-44478842D01*
X122524693Y-44525983D01*
X122501123Y-44596693D01*
X122383272Y-44714544D01*
X122312561Y-44738115D01*
X122265421Y-44738115D01*
X122194710Y-44714544D01*
X122076859Y-44596693D01*
X122053289Y-44525983D01*
X122053289Y-44478842D01*
X122739190Y-42868857D02*
X122853476Y-42906952D01*
X122891571Y-42945047D01*
X122929666Y-43021238D01*
X122929666Y-43135523D01*
X122891571Y-43211714D01*
X122853476Y-43249809D01*
X122777285Y-43287904D01*
X122472523Y-43287904D01*
X122472523Y-42487904D01*
X122739190Y-42487904D01*
X122815380Y-42526000D01*
X122853476Y-42564095D01*
X122891571Y-42640285D01*
X122891571Y-42716476D01*
X122853476Y-42792666D01*
X122815380Y-42830761D01*
X122739190Y-42868857D01*
X122472523Y-42868857D01*
X123615380Y-42754571D02*
X123615380Y-43287904D01*
X123424904Y-42449809D02*
X123234428Y-43021238D01*
X123729666Y-43021238D01*
X122510619Y-40328857D02*
X122777285Y-40328857D01*
X122891571Y-40747904D02*
X122510619Y-40747904D01*
X122510619Y-39947904D01*
X122891571Y-39947904D01*
X123577285Y-39947904D02*
X123424904Y-39947904D01*
X123348714Y-39986000D01*
X123310619Y-40024095D01*
X123234428Y-40138380D01*
X123196333Y-40290761D01*
X123196333Y-40595523D01*
X123234428Y-40671714D01*
X123272523Y-40709809D01*
X123348714Y-40747904D01*
X123501095Y-40747904D01*
X123577285Y-40709809D01*
X123615380Y-40671714D01*
X123653476Y-40595523D01*
X123653476Y-40405047D01*
X123615380Y-40328857D01*
X123577285Y-40290761D01*
X123501095Y-40252666D01*
X123348714Y-40252666D01*
X123272523Y-40290761D01*
X123234428Y-40328857D01*
X123196333Y-40405047D01*
X122472523Y-38207904D02*
X122472523Y-37407904D01*
X122663000Y-37407904D01*
X122777285Y-37446000D01*
X122853476Y-37522190D01*
X122891571Y-37598380D01*
X122929666Y-37750761D01*
X122929666Y-37865047D01*
X122891571Y-38017428D01*
X122853476Y-38093619D01*
X122777285Y-38169809D01*
X122663000Y-38207904D01*
X122472523Y-38207904D01*
X123196333Y-37407904D02*
X123729666Y-37407904D01*
X123386809Y-38207904D01*
X122929666Y-35591714D02*
X122891571Y-35629809D01*
X122777285Y-35667904D01*
X122701095Y-35667904D01*
X122586809Y-35629809D01*
X122510619Y-35553619D01*
X122472523Y-35477428D01*
X122434428Y-35325047D01*
X122434428Y-35210761D01*
X122472523Y-35058380D01*
X122510619Y-34982190D01*
X122586809Y-34906000D01*
X122701095Y-34867904D01*
X122777285Y-34867904D01*
X122891571Y-34906000D01*
X122929666Y-34944095D01*
X123615380Y-34867904D02*
X123463000Y-34867904D01*
X123386809Y-34906000D01*
X123348714Y-34944095D01*
X123272523Y-35058380D01*
X123234428Y-35210761D01*
X123234428Y-35515523D01*
X123272523Y-35591714D01*
X123310619Y-35629809D01*
X123386809Y-35667904D01*
X123539190Y-35667904D01*
X123615380Y-35629809D01*
X123653476Y-35591714D01*
X123691571Y-35515523D01*
X123691571Y-35325047D01*
X123653476Y-35248857D01*
X123615380Y-35210761D01*
X123539190Y-35172666D01*
X123386809Y-35172666D01*
X123310619Y-35210761D01*
X123272523Y-35248857D01*
X123234428Y-35325047D01*
X122472523Y-33127904D02*
X122472523Y-32327904D01*
X122663000Y-32327904D01*
X122777285Y-32366000D01*
X122853476Y-32442190D01*
X122891571Y-32518380D01*
X122929666Y-32670761D01*
X122929666Y-32785047D01*
X122891571Y-32937428D01*
X122853476Y-33013619D01*
X122777285Y-33089809D01*
X122663000Y-33127904D01*
X122472523Y-33127904D01*
X123615380Y-32594571D02*
X123615380Y-33127904D01*
X123424904Y-32289809D02*
X123234428Y-32861238D01*
X123729666Y-32861238D01*
X122453476Y-22206000D02*
X122377285Y-22167904D01*
X122263000Y-22167904D01*
X122148714Y-22206000D01*
X122072523Y-22282190D01*
X122034428Y-22358380D01*
X121996333Y-22510761D01*
X121996333Y-22625047D01*
X122034428Y-22777428D01*
X122072523Y-22853619D01*
X122148714Y-22929809D01*
X122263000Y-22967904D01*
X122339190Y-22967904D01*
X122453476Y-22929809D01*
X122491571Y-22891714D01*
X122491571Y-22625047D01*
X122339190Y-22625047D01*
X122834428Y-22967904D02*
X122834428Y-22167904D01*
X123291571Y-22967904D01*
X123291571Y-22167904D01*
X123672523Y-22967904D02*
X123672523Y-22167904D01*
X123863000Y-22167904D01*
X123977285Y-22206000D01*
X124053476Y-22282190D01*
X124091571Y-22358380D01*
X124129666Y-22510761D01*
X124129666Y-22625047D01*
X124091571Y-22777428D01*
X124053476Y-22853619D01*
X123977285Y-22929809D01*
X123863000Y-22967904D01*
X123672523Y-22967904D01*
X122453476Y-24746000D02*
X122377285Y-24707904D01*
X122263000Y-24707904D01*
X122148714Y-24746000D01*
X122072523Y-24822190D01*
X122034428Y-24898380D01*
X121996333Y-25050761D01*
X121996333Y-25165047D01*
X122034428Y-25317428D01*
X122072523Y-25393619D01*
X122148714Y-25469809D01*
X122263000Y-25507904D01*
X122339190Y-25507904D01*
X122453476Y-25469809D01*
X122491571Y-25431714D01*
X122491571Y-25165047D01*
X122339190Y-25165047D01*
X122834428Y-25507904D02*
X122834428Y-24707904D01*
X123291571Y-25507904D01*
X123291571Y-24707904D01*
X123672523Y-25507904D02*
X123672523Y-24707904D01*
X123863000Y-24707904D01*
X123977285Y-24746000D01*
X124053476Y-24822190D01*
X124091571Y-24898380D01*
X124129666Y-25050761D01*
X124129666Y-25165047D01*
X124091571Y-25317428D01*
X124053476Y-25393619D01*
X123977285Y-25469809D01*
X123863000Y-25507904D01*
X123672523Y-25507904D01*
X122472523Y-28047904D02*
X122472523Y-27247904D01*
X122663000Y-27247904D01*
X122777285Y-27286000D01*
X122853476Y-27362190D01*
X122891571Y-27438380D01*
X122929666Y-27590761D01*
X122929666Y-27705047D01*
X122891571Y-27857428D01*
X122853476Y-27933619D01*
X122777285Y-28009809D01*
X122663000Y-28047904D01*
X122472523Y-28047904D01*
X123691571Y-28047904D02*
X123234428Y-28047904D01*
X123463000Y-28047904D02*
X123463000Y-27247904D01*
X123386809Y-27362190D01*
X123310619Y-27438380D01*
X123234428Y-27476476D01*
X122472523Y-30587904D02*
X122472523Y-29787904D01*
X122663000Y-29787904D01*
X122777285Y-29826000D01*
X122853476Y-29902190D01*
X122891571Y-29978380D01*
X122929666Y-30130761D01*
X122929666Y-30245047D01*
X122891571Y-30397428D01*
X122853476Y-30473619D01*
X122777285Y-30549809D01*
X122663000Y-30587904D01*
X122472523Y-30587904D01*
X123424904Y-29787904D02*
X123501095Y-29787904D01*
X123577285Y-29826000D01*
X123615380Y-29864095D01*
X123653476Y-29940285D01*
X123691571Y-30092666D01*
X123691571Y-30283142D01*
X123653476Y-30435523D01*
X123615380Y-30511714D01*
X123577285Y-30549809D01*
X123501095Y-30587904D01*
X123424904Y-30587904D01*
X123348714Y-30549809D01*
X123310619Y-30511714D01*
X123272523Y-30435523D01*
X123234428Y-30283142D01*
X123234428Y-30092666D01*
X123272523Y-29940285D01*
X123310619Y-29864095D01*
X123348714Y-29826000D01*
X123424904Y-29787904D01*
X122472523Y-20427904D02*
X122472523Y-19627904D01*
X122663000Y-19627904D01*
X122777285Y-19666000D01*
X122853476Y-19742190D01*
X122891571Y-19818380D01*
X122929666Y-19970761D01*
X122929666Y-20085047D01*
X122891571Y-20237428D01*
X122853476Y-20313619D01*
X122777285Y-20389809D01*
X122663000Y-20427904D01*
X122472523Y-20427904D01*
X123234428Y-19704095D02*
X123272523Y-19666000D01*
X123348714Y-19627904D01*
X123539190Y-19627904D01*
X123615380Y-19666000D01*
X123653476Y-19704095D01*
X123691571Y-19780285D01*
X123691571Y-19856476D01*
X123653476Y-19970761D01*
X123196333Y-20427904D01*
X123691571Y-20427904D01*
X122761651Y-17087904D02*
X123218794Y-17087904D01*
X122990223Y-17887904D02*
X122990223Y-17087904D01*
X123409270Y-17087904D02*
X123942604Y-17887904D01*
X123942604Y-17087904D02*
X123409270Y-17887904D01*
X124399747Y-17087904D02*
X124475937Y-17087904D01*
X124552128Y-17126000D01*
X124590223Y-17164095D01*
X124628318Y-17240285D01*
X124666413Y-17392666D01*
X124666413Y-17583142D01*
X124628318Y-17735523D01*
X124590223Y-17811714D01*
X124552128Y-17849809D01*
X124475937Y-17887904D01*
X124399747Y-17887904D01*
X124323556Y-17849809D01*
X124285461Y-17811714D01*
X124247366Y-17735523D01*
X124209270Y-17583142D01*
X124209270Y-17392666D01*
X124247366Y-17240285D01*
X124285461Y-17164095D01*
X124323556Y-17126000D01*
X124399747Y-17087904D01*
X125580699Y-17049809D02*
X124894985Y-18078380D01*
X125847366Y-17887904D02*
X125847366Y-17087904D01*
X126037842Y-17087904D01*
X126152128Y-17126000D01*
X126228318Y-17202190D01*
X126266413Y-17278380D01*
X126304508Y-17430761D01*
X126304508Y-17545047D01*
X126266413Y-17697428D01*
X126228318Y-17773619D01*
X126152128Y-17849809D01*
X126037842Y-17887904D01*
X125847366Y-17887904D01*
X126571175Y-17087904D02*
X127066413Y-17087904D01*
X126799747Y-17392666D01*
X126914032Y-17392666D01*
X126990223Y-17430761D01*
X127028318Y-17468857D01*
X127066413Y-17545047D01*
X127066413Y-17735523D01*
X127028318Y-17811714D01*
X126990223Y-17849809D01*
X126914032Y-17887904D01*
X126685461Y-17887904D01*
X126609270Y-17849809D01*
X126571175Y-17811714D01*
X123740666Y-44046000D02*
X123840666Y-44079333D01*
X123874000Y-44112666D01*
X123907333Y-44179333D01*
X123907333Y-44279333D01*
X123874000Y-44346000D01*
X123840666Y-44379333D01*
X123774000Y-44412666D01*
X123507333Y-44412666D01*
X123507333Y-43712666D01*
X123740666Y-43712666D01*
X123807333Y-43746000D01*
X123840666Y-43779333D01*
X123874000Y-43846000D01*
X123874000Y-43912666D01*
X123840666Y-43979333D01*
X123807333Y-44012666D01*
X123740666Y-44046000D01*
X123507333Y-44046000D01*
X124140666Y-43712666D02*
X124607333Y-43712666D01*
X124307333Y-44412666D01*
X132790666Y-44046000D02*
X132557333Y-44046000D01*
X132557333Y-44412666D02*
X132557333Y-43712666D01*
X132890666Y-43712666D01*
X133290666Y-43712666D02*
X133357333Y-43712666D01*
X133424000Y-43746000D01*
X133457333Y-43779333D01*
X133490666Y-43846000D01*
X133524000Y-43979333D01*
X133524000Y-44146000D01*
X133490666Y-44279333D01*
X133457333Y-44346000D01*
X133424000Y-44379333D01*
X133357333Y-44412666D01*
X133290666Y-44412666D01*
X133224000Y-44379333D01*
X133190666Y-44346000D01*
X133157333Y-44279333D01*
X133124000Y-44146000D01*
X133124000Y-43979333D01*
X133157333Y-43846000D01*
X133190666Y-43779333D01*
X133224000Y-43746000D01*
X133290666Y-43712666D01*
X134688297Y-44360991D02*
X134782578Y-44313851D01*
X134829719Y-44313851D01*
X134900429Y-44337421D01*
X134971140Y-44408132D01*
X134994710Y-44478842D01*
X134994710Y-44525983D01*
X134971140Y-44596693D01*
X134782578Y-44785255D01*
X134287603Y-44290280D01*
X134452595Y-44125289D01*
X134523306Y-44101719D01*
X134570446Y-44101719D01*
X134641157Y-44125289D01*
X134688297Y-44172429D01*
X134711867Y-44243140D01*
X134711867Y-44290280D01*
X134688297Y-44360991D01*
X134523306Y-44525983D01*
X134994710Y-43583174D02*
X134900429Y-43677455D01*
X134876859Y-43748165D01*
X134876859Y-43795306D01*
X134900429Y-43913157D01*
X134971140Y-44031008D01*
X135159702Y-44219570D01*
X135230412Y-44243140D01*
X135277553Y-44243140D01*
X135348264Y-44219570D01*
X135442544Y-44125289D01*
X135466115Y-44054578D01*
X135466115Y-44007438D01*
X135442544Y-43936727D01*
X135324693Y-43818876D01*
X135253983Y-43795306D01*
X135206842Y-43795306D01*
X135136132Y-43818876D01*
X135041851Y-43913157D01*
X135018280Y-43983867D01*
X135018280Y-44031008D01*
X135041851Y-44101719D01*
X128390666Y-44181714D02*
X128352571Y-44219809D01*
X128238285Y-44257904D01*
X128162095Y-44257904D01*
X128047809Y-44219809D01*
X127971619Y-44143619D01*
X127933523Y-44067428D01*
X127895428Y-43915047D01*
X127895428Y-43800761D01*
X127933523Y-43648380D01*
X127971619Y-43572190D01*
X128047809Y-43496000D01*
X128162095Y-43457904D01*
X128238285Y-43457904D01*
X128352571Y-43496000D01*
X128390666Y-43534095D01*
X128657333Y-43457904D02*
X129190666Y-43457904D01*
X128847809Y-44257904D01*
X130797333Y-43838857D02*
X130530666Y-43838857D01*
X130530666Y-44257904D02*
X130530666Y-43457904D01*
X130911619Y-43457904D01*
X131635428Y-44257904D02*
X131178285Y-44257904D01*
X131406857Y-44257904D02*
X131406857Y-43457904D01*
X131330666Y-43572190D01*
X131254476Y-43648380D01*
X131178285Y-43686476D01*
X125393523Y-44257904D02*
X125393523Y-43457904D01*
X125584000Y-43457904D01*
X125698285Y-43496000D01*
X125774476Y-43572190D01*
X125812571Y-43648380D01*
X125850666Y-43800761D01*
X125850666Y-43915047D01*
X125812571Y-44067428D01*
X125774476Y-44143619D01*
X125698285Y-44219809D01*
X125584000Y-44257904D01*
X125393523Y-44257904D01*
X126574476Y-43457904D02*
X126193523Y-43457904D01*
X126155428Y-43838857D01*
X126193523Y-43800761D01*
X126269714Y-43762666D01*
X126460190Y-43762666D01*
X126536380Y-43800761D01*
X126574476Y-43838857D01*
X126612571Y-43915047D01*
X126612571Y-44105523D01*
X126574476Y-44181714D01*
X126536380Y-44219809D01*
X126460190Y-44257904D01*
X126269714Y-44257904D01*
X126193523Y-44219809D01*
X126155428Y-44181714D01*
M02*
