G04 #@! TF.GenerationSoftware,KiCad,Pcbnew,(5.1.5)-2*
G04 #@! TF.CreationDate,2020-01-16T23:06:53-08:00*
G04 #@! TF.ProjectId,Jason's PCB,4a61736f-6e27-4732-9050-43422e6b6963,rev?*
G04 #@! TF.SameCoordinates,Original*
G04 #@! TF.FileFunction,Copper,L1,Top*
G04 #@! TF.FilePolarity,Positive*
%FSLAX46Y46*%
G04 Gerber Fmt 4.6, Leading zero omitted, Abs format (unit mm)*
G04 Created by KiCad (PCBNEW (5.1.5)-2) date 2020-01-16 23:06:53*
%MOMM*%
%LPD*%
G04 APERTURE LIST*
%ADD10R,1.752600X1.752600*%
%ADD11C,1.752600*%
%ADD12C,2.000000*%
%ADD13R,3.200000X2.000000*%
%ADD14R,2.000000X2.000000*%
%ADD15C,2.250000*%
%ADD16C,1.905000*%
%ADD17R,1.905000X1.905000*%
%ADD18C,2.100000*%
%ADD19C,0.254000*%
G04 APERTURE END LIST*
D10*
X120904000Y-17526000D03*
D11*
X120904000Y-20066000D03*
X120904000Y-22606000D03*
X120904000Y-25146000D03*
X120904000Y-27686000D03*
X120904000Y-30226000D03*
X120904000Y-32766000D03*
X120904000Y-35306000D03*
X120904000Y-37846000D03*
X120904000Y-40386000D03*
X120904000Y-42926000D03*
X136144000Y-45466000D03*
X136144000Y-42926000D03*
X136144000Y-40386000D03*
X136144000Y-37846000D03*
X136144000Y-35306000D03*
X136144000Y-32766000D03*
X136144000Y-30226000D03*
X136144000Y-27686000D03*
X136144000Y-25146000D03*
X136144000Y-22606000D03*
X136144000Y-20066000D03*
X121132600Y-45466000D03*
X136144000Y-17526000D03*
X133604000Y-45466000D03*
X131064000Y-45466000D03*
X128524000Y-45466000D03*
X125984000Y-45466000D03*
X123444000Y-45466000D03*
D12*
X135778000Y-87463000D03*
X135778000Y-82463000D03*
D13*
X128778000Y-90563000D03*
X128778000Y-79363000D03*
D12*
X121278000Y-87463000D03*
X121278000Y-84963000D03*
D14*
X121278000Y-82463000D03*
D15*
X112014000Y-22733000D03*
X105664000Y-25273000D03*
D16*
X108204000Y-32893000D03*
D17*
X110744000Y-32893000D03*
D14*
X121278000Y-63413000D03*
D12*
X121278000Y-65913000D03*
X121278000Y-68413000D03*
D13*
X128778000Y-60313000D03*
X128778000Y-71513000D03*
D12*
X135778000Y-63413000D03*
X135778000Y-68413000D03*
D17*
X91694000Y-51943000D03*
D16*
X89154000Y-51943000D03*
D15*
X86614000Y-44323000D03*
X92964000Y-41783000D03*
D17*
X110744000Y-90043000D03*
D16*
X108204000Y-90043000D03*
D15*
X105664000Y-82423000D03*
X112014000Y-79883000D03*
D17*
X91694000Y-90043000D03*
D16*
X89154000Y-90043000D03*
D15*
X86614000Y-82423000D03*
X92964000Y-79883000D03*
D17*
X110744000Y-70993000D03*
D16*
X108204000Y-70993000D03*
D15*
X105664000Y-63373000D03*
X112014000Y-60833000D03*
D17*
X91694000Y-70993000D03*
D16*
X89154000Y-70993000D03*
D15*
X86614000Y-63373000D03*
X92964000Y-60833000D03*
D17*
X110744000Y-51943000D03*
D16*
X108204000Y-51943000D03*
D15*
X105664000Y-44323000D03*
X112014000Y-41783000D03*
X92964000Y-22733000D03*
X86614000Y-25273000D03*
D16*
X89154000Y-32893000D03*
D17*
X91694000Y-32893000D03*
D18*
X139700000Y-16668750D03*
X79375000Y-16668750D03*
X139700000Y-96043750D03*
X79375000Y-96043750D03*
D19*
X113138999Y-23857999D02*
X112014000Y-22733000D01*
X120904000Y-22606000D02*
X120269000Y-22606000D01*
X119017001Y-23857999D02*
X113138999Y-23857999D01*
X120269000Y-22606000D02*
X119017001Y-23857999D01*
X120904000Y-22606000D02*
X119253000Y-24257000D01*
X119253000Y-24257000D02*
X107188000Y-24257000D01*
X92964000Y-22733000D02*
X93218000Y-22733000D01*
X93218000Y-22733000D02*
X93980000Y-23495000D01*
X107188000Y-24257000D02*
X106299000Y-23495000D01*
X137192213Y-68413000D02*
X138676213Y-66929000D01*
X135778000Y-68413000D02*
X137192213Y-68413000D01*
X138676213Y-22598213D02*
X136144000Y-20066000D01*
X138676213Y-66929000D02*
X138676213Y-22598213D01*
X136779000Y-20066000D02*
X136144000Y-20066000D01*
X139192000Y-22479000D02*
X136779000Y-20066000D01*
X135778000Y-87463000D02*
X139192000Y-84049000D01*
X139192000Y-84049000D02*
X139192000Y-22479000D01*
X123778000Y-68413000D02*
X121278000Y-65913000D01*
X135778000Y-68413000D02*
X123778000Y-68413000D01*
X123778000Y-87463000D02*
X121278000Y-84963000D01*
X135778000Y-87463000D02*
X123778000Y-87463000D01*
X119863787Y-65913000D02*
X121278000Y-65913000D01*
X117094000Y-65913000D02*
X119863787Y-65913000D01*
X112014000Y-60833000D02*
X117094000Y-65913000D01*
X117094000Y-84963000D02*
X121278000Y-84963000D01*
X112014000Y-79883000D02*
X117094000Y-84963000D01*
X120904000Y-25146000D02*
X119507000Y-26543000D01*
X119507000Y-34290000D02*
X112014000Y-41783000D01*
X119507000Y-26543000D02*
X119507000Y-34290000D01*
X110423010Y-60833000D02*
X92964000Y-60833000D01*
X112014000Y-60833000D02*
X110423010Y-60833000D01*
X110423010Y-79883000D02*
X92964000Y-79883000D01*
X112014000Y-79883000D02*
X110423010Y-79883000D01*
X93980000Y-23495000D02*
X106299000Y-23495000D01*
X110423010Y-41783000D02*
X92964000Y-41783000D01*
X112014000Y-41783000D02*
X110423010Y-41783000D01*
M02*
