M48
; DRILL file {KiCad (5.1.5)-2} date 1/16/2020 11:07:06 PM
; FORMAT={-:-/ absolute / inch / decimal}
; #@! TF.CreationDate,2020-01-16T23:07:06-08:00
; #@! TF.GenerationSoftware,Kicad,Pcbnew,(5.1.5)-2
; #@! TF.FileFunction,NonPlated,1,2,NPTH
FMAT,2
INCH
T1C0.0591
T2C0.0689
T3C0.1570
%
G90
G05
T2
X4.11Y-3.345
X4.51Y-3.345
X3.36Y-2.595
X3.76Y-2.595
X3.36Y-1.095
X3.76Y-1.095
X3.36Y-1.845
X3.76Y-1.845
X4.11Y-1.845
X4.51Y-1.845
X4.11Y-2.595
X4.51Y-2.595
X4.11Y-1.095
X4.51Y-1.095
X3.36Y-3.345
X3.76Y-3.345
T3
X4.31Y-2.595
X3.56Y-3.345
X4.31Y-3.345
X3.56Y-2.595
X3.56Y-1.095
X3.56Y-1.845
X4.31Y-1.845
X4.31Y-1.095
T1
G00X5.0444Y-2.3745
M15
G01X5.0956Y-2.3745
M16
G05
G00X5.0444Y-2.8155
M15
G01X5.0956Y-2.8155
M16
G05
G00X5.0444Y-3.1245
M15
G01X5.0956Y-3.1245
M16
G05
G00X5.0444Y-3.5655
M15
G01X5.0956Y-3.5655
M16
G05
T0
M30
