<?xml version="1.0" standalone="no"?>
<!DOCTYPE svg PUBLIC "-//W3C//DTD SVG 1.1//EN"
  "http://www.w3.org/Graphics/SVG/1.1/DTD/svg11.dtd">
<svg width="243.64999389648438mm" height="199.875mm" viewBox="-144.39999389648438 -100 243.64999389648438 199.875" xmlns="http://www.w3.org/2000/svg" version="1.1">
	<title>svgOutput</title>
	<desc>made with tinkercad</desc>
<path d="M 22.538000106811523 -4.203999996185303 L 22.246000289916992 -4.573999881744385 L 21.985000610351562 -4.966000080108643 L 21.753999710083008 -5.376999855041504 L 21.55699920654297 -5.803999900817871 L 21.393999099731445 -6.245999813079834 L 21.266000747680664 -6.699999809265137 L 21.173999786376953 -7.1620001792907715 L 21.118999481201172 -7.630000114440918 L 21.100000381469727 -8.10099983215332 L 21.100000381469727 -8.192000389099121 L 21.10009765625 -16.384000778198242 L 21.100292205810547 -32.768001556396484 L 21.10068130493164 -65.53600311279297 L 21.100875854492188 -81.91999816894531 L 21.10097312927246 -90.11199951171875 L 21.10099983215332 -92.29900360107422 L 21.118999481201172 -92.7699966430664 L 21.173999786376953 -93.23799896240234 L 21.266000747680664 -93.69999694824219 L 21.393999099731445 -94.15399932861328 L 21.55699920654297 -94.59600067138672 L 21.753999710083008 -95.02300262451172 L 21.985000610351562 -95.43399810791016 L 22.246000289916992 -95.82599639892578 L 22.538000106811523 -96.19599914550781 L 22.857999801635742 -96.54199981689453 L 23.20400047302246 -96.86199951171875 L 23.573999404907227 -97.15399932861328 L 23.965999603271484 -97.41500091552734 L 24.37700080871582 -97.64600372314453 L 24.576000213623047 -97.73780822753906 L 24.804000854492188 -97.84300231933594 L 25.246000289916992 -98.00599670410156 L 25.700000762939453 -98.13400268554688 L 26.16200065612793 -98.22599792480469 L 26.6299991607666 -98.28099822998047 L 27.10099983215332 -98.30000305175781 L 28.672000885009766 -98.2999496459961 L 32.768001556396484 -98.2998275756836 L 59.67499923706055 -98.29900360107422 L 65.53600311279297 -98.29900360107422 L 81.91999816894531 -98.29900360107422 L 90.11199951171875 -98.29900360107422 L 92.25 -98.29900360107422 L 92.72000122070312 -98.28099822998047 L 93.18800354003906 -98.22599792480469 L 93.6500015258789 -98.13400268554688 L 94.10399627685547 -98.00599670410156 L 94.20800018310547 -97.96764373779297 L 94.5459976196289 -97.84300231933594 L 94.9729995727539 -97.64600372314453 L 95.38400268554688 -97.41500091552734 L 95.7760009765625 -97.15399932861328 L 96.14600372314453 -96.86199951171875 L 96.49199676513672 -96.54199981689453 L 96.81199645996094 -96.19599914550781 L 97.10399627685547 -95.82599639892578 L 97.36499786376953 -95.43399810791016 L 97.59600067138672 -95.02300262451172 L 97.79299926757812 -94.59600067138672 L 97.93608856201172 -94.20800018310547 L 97.95600128173828 -94.15399932861328 L 98.08399963378906 -93.69999694824219 L 98.1760025024414 -93.23799896240234 L 98.23100280761719 -92.7699966430664 L 98.25 -92.29900360107422 L 98.25 -90.11199951171875 L 98.25 -81.91999816894531 L 98.25 -65.53600311279297 L 98.25 -32.768001556396484 L 98.25 -16.384000778198242 L 98.25 -8.192000389099121 L 98.25 -8.100000381469727 L 98.23100280761719 -7.630000114440918 L 98.1760025024414 -7.1620001792907715 L 98.08399963378906 -6.699999809265137 L 97.95600128173828 -6.245999813079834 L 97.79299926757812 -5.803999900817871 L 97.59600067138672 -5.376999855041504 L 97.36499786376953 -4.966000080108643 L 97.10399627685547 -4.573999881744385 L 96.81199645996094 -4.203999996185303 L 96.71211242675781 -4.0960001945495605 L 96.49199676513672 -3.8580000400543213 L 96.14600372314453 -3.5380001068115234 L 95.7760009765625 -3.246000051498413 L 95.38400268554688 -2.984999895095825 L 94.9729995727539 -2.753999948501587 L 94.5459976196289 -2.556999921798706 L 94.20800018310547 -2.4323530197143555 L 94.10399627685547 -2.3940000534057617 L 93.6500015258789 -2.2660000324249268 L 93.18800354003906 -2.1740000247955322 L 92.72000122070312 -2.11899995803833 L 92.2490005493164 -2.0999999046325684 L 90.11199951171875 -2.0999999046325684 L 81.91999816894531 -2.0999999046325684 L 65.53600311279297 -2.0999999046325684 L 32.768001556396484 -2.0999999046325684 L 28.672000885009766 -2.0999999046325684 L 27.10099983215332 -2.0999999046325684 L 26.6299991607666 -2.11899995803833 L 26.16200065612793 -2.1740000247955322 L 25.700000762939453 -2.2660000324249268 L 25.246000289916992 -2.3940000534057617 L 24.804000854492188 -2.556999921798706 L 24.576000213623047 -2.6621897220611572 L 24.37700080871582 -2.753999948501587 L 23.965999603271484 -2.984999895095825 L 23.573999404907227 -3.246000051498413 L 23.20400047302246 -3.5380001068115234 L 22.857999801635742 -3.8580000400543213 L 22.538000106811523 -4.203999996185303 M -55.94900131225586 98.30000305175781 L -56.41999816894531 98.28099822998047 L -56.88800048828125 98.22599792480469 L -57.34400177001953 98.13519287109375 L -57.349998474121094 98.13400268554688 L -57.80400085449219 98.00599670410156 L -58.24599838256836 97.84300231933594 L -58.652000427246094 97.65568542480469 L -58.67300033569336 97.64600372314453 L -59.08399963378906 97.41500091552734 L -59.47600173950195 97.15399932861328 L -59.84600067138672 96.86199951171875 L -60.19200134277344 96.54199981689453 L -60.512001037597656 96.19599914550781 L -60.80400085449219 95.82599639892578 L -61.064998626708984 95.43399810791016 L -61.1510009765625 95.28099060058594 L -61.29600143432617 95.02300262451172 L -61.439998626708984 94.71087646484375 L -61.49300003051758 94.59600067138672 L -61.636085510253906 94.20800018310547 L -61.65599822998047 94.15399932861328 L -61.68531036376953 94.05004119873047 L -61.784000396728516 93.69999694824219 L -61.875999450683594 93.23799896240234 L -61.930999755859375 92.7699966430664 L -61.9384651184082 92.5849838256836 L -61.94997787475586 92.29953002929688 L -61.95000076293945 92.29900360107422 L -61.94997024536133 90.11199951171875 L -61.949859619140625 81.91999816894531 L -61.949806213378906 77.89595794677734 L -61.94966125488281 65.53600311279297 L -61.94927215576172 32.768001556396484 L -61.94907760620117 16.384000778198242 L -61.94900131225586 9.896113395690918 L -61.94900131225586 8.192000389099121 L -61.94900131225586 8.10099983215332 L -61.948978424072266 8.100441932678223 L -61.930999755859375 7.630000114440918 L -61.875999450683594 7.1620001792907715 L -61.784000396728516 6.699999809265137 L -61.65599822998047 6.245999813079834 L -61.49300003051758 5.803999900817871 L -61.439998626708984 5.689121723175049 L -61.29600143432617 5.376999855041504 L -61.1510009765625 5.119012832641602 L -61.064998626708984 4.966000080108643 L -60.80400085449219 4.573999881744385 L -60.512001037597656 4.203999996185303 L -60.41211700439453 4.0960001945495605 L -60.19200134277344 3.8580000400543213 L -59.84600067138672 3.5380001068115234 L -59.47600173950195 3.246000051498413 L -59.08399963378906 2.984999895095825 L -58.67300033569336 2.753999948501587 L -58.24599838256836 2.556999921798706 L -57.80400085449219 2.3940000534057617 L -57.349998474121094 2.2660000324249268 L -57.34400177001953 2.2648050785064697 L -56.88800048828125 2.1740000247955322 L -56.41999816894531 2.11899995803833 L -56.24467086791992 2.1119272708892822 L -55.94900131225586 2.0999999046325684 L -55.04800033569336 2.1000137329101562 L -49.152000427246094 2.100104331970215 L -32.768001556396484 2.100355863571167 L 0 2.100858688354492 L 8.192000389099121 2.100984573364258 L 9.199999809265137 2.1010000705718994 L 9.670000076293945 2.11899995803833 L 10.137999534606934 2.1740000247955322 L 10.600000381469727 2.2660000324249268 L 11.053999900817871 2.3940000534057617 L 11.496000289916992 2.556999921798706 L 11.92300033569336 2.753999948501587 L 12.288000106811523 2.959146022796631 L 12.333999633789062 2.984999895095825 L 12.72599983215332 3.246000051498413 L 13.095999717712402 3.5380001068115234 L 13.442000389099121 3.8580000400543213 L 13.76200008392334 4.203999996185303 L 14.053999900817871 4.573999881744385 L 14.3149995803833 4.966000080108643 L 14.545999526977539 5.376999855041504 L 14.743000030517578 5.803999900817871 L 14.906000137329102 6.245999813079834 L 15.034000396728516 6.699999809265137 L 15.12600040435791 7.1620001792907715 L 15.180999755859375 7.630000114440918 L 15.199999809265137 8.10099983215332 L 15.199999809265137 8.192000389099121 L 15.199999809265137 8.902999877929688 L 15.199999809265137 16.384000778198242 L 15.199999809265137 32.768001556396484 L 15.199999809265137 65.53600311279297 L 15.199999809265137 81.91999816894531 L 15.199999809265137 90.11199951171875 L 15.199999809265137 92.30000305175781 L 15.180999755859375 92.7699966430664 L 15.12600040435791 93.23799896240234 L 15.034000396728516 93.69999694824219 L 14.906000137329102 94.15399932861328 L 14.886085510253906 94.20800018310547 L 14.743000030517578 94.59600067138672 L 14.545999526977539 95.02300262451172 L 14.3149995803833 95.43399810791016 L 14.053999900817871 95.82599639892578 L 13.76200008392334 96.19599914550781 L 13.442000389099121 96.54199981689453 L 13.095999717712402 96.86199951171875 L 12.72599983215332 97.15399932861328 L 12.333999633789062 97.41500091552734 L 12.288000106811523 97.44085693359375 L 12.261018753051758 97.45601654052734 L 11.92300033569336 97.64600372314453 L 11.496000289916992 97.84300231933594 L 11.053999900817871 98.00599670410156 L 10.600000381469727 98.13400268554688 L 10.137999534606934 98.22599792480469 L 9.670000076293945 98.28099822998047 L 9.199000358581543 98.30000305175781 L 8.498000144958496 98.30000305175781 L 8.192000389099121 98.30000305175781 L 0 98.30000305175781 L -32.768001556396484 98.30000305175781 L -49.152000427246094 98.30000305175781 L -55.94900131225586 98.30000305175781 M -13.003000259399414 -96.89970397949219 L -13.003000259399414 -80.27400207519531 L -13.003000259399414 -74.47599792480469 L -13.003000259399414 -71.375 L -13.003000259399414 -70.375 L -13.003000259399414 -65.53600311279297 L -13.003000259399414 -61.224998474121094 L -13.003000259399414 -56.89799880981445 L 0 -56.89799880981445 L 6.001999855041504 -56.89799880981445 L 6.001999855041504 -65.53600311279297 L 6.001999855041504 -81.91999816894531 L 6.001999855041504 -96.89912414550781 L 8.192000389099121 -96.89905548095703 L 10 -96.89900207519531 L 10.192999839782715 -96.89199829101562 L 10.468999862670898 -96.88099670410156 L 10.937999725341797 -96.82599639892578 L 11.39900016784668 -96.73400115966797 L 11.854000091552734 -96.60600280761719 L 12.288000106811523 -96.44595336914062 L 12.295999526977539 -96.44300079345703 L 12.722999572753906 -96.24600219726562 L 13.133999824523926 -96.01499938964844 L 13.526000022888184 -95.75399780273438 L 13.895999908447266 -95.46199798583984 L 14.241999626159668 -95.14199829101562 L 14.562000274658203 -94.7959976196289 L 14.854000091552734 -94.4260025024414 L 14.99914836883545 -94.20800018310547 L 15.114999771118164 -94.03399658203125 L 15.21500015258789 -93.85600280761719 L 15.345999717712402 -93.62300109863281 L 15.346464157104492 -93.62199401855469 L 15.543000221252441 -93.19599914550781 L 15.704999923706055 -92.75399780273438 L 15.833999633789062 -92.30000305175781 L 15.925000190734863 -91.83799743652344 L 15.980999946594238 -91.37000274658203 L 16 -90.89900207519531 L 16 -90.125 L 16 -90.11199951171875 L 16 -81.91999816894531 L 16 -65.53600311279297 L 16 -46.801998138427734 L 16 -32.768001556396484 L 16 -27.80299949645996 L 16 -16.384000778198242 L 16 -8.192000389099121 L 16 -6.699999809265137 L 15.980999946594238 -6.230000019073486 L 15.925000190734863 -5.76200008392334 L 15.833999633789062 -5.300000190734863 L 15.704999923706055 -4.8460001945495605 L 15.543000221252441 -4.4039998054504395 L 15.400901794433594 -4.0960001945495605 L 15.345999717712402 -3.9769999980926514 L 15.21500015258789 -3.74399995803833 L 15.114999771118164 -3.565999984741211 L 15.114503860473633 -3.5652542114257812 L 14.854000091552734 -3.1740000247955322 L 14.562000274658203 -2.803999900817871 L 14.241999626159668 -2.4579999446868896 L 13.895999908447266 -2.138000011444092 L 13.526000022888184 -1.8459999561309814 L 13.133999824523926 -1.5850000381469727 L 12.722999572753906 -1.3539999723434448 L 12.295999526977539 -1.156999945640564 L 12.288000106811523 -1.1540497541427612 L 11.854000091552734 -0.9940000176429747 L 11.39900016784668 -0.8659999966621398 L 10.937999725341797 -0.7739999890327453 L 10.474017143249512 -0.7195883393287658 L 10.468999862670898 -0.7189999818801879 L 10.192999839782715 -0.7080000042915343 L 9.99899959564209 -0.6999999880790709 L 9.20300006866455 -0.6999999880790709 L 8.192000389099121 -0.6999999880790709 L 5.427000045776367 -0.6999999880790709 L 0 -0.6999999880790709 L -16.384000778198242 -0.6999999880790709 L -29.575000762939453 -0.6999999880790709 L -30.375 -0.6999999880790709 L -32.768001556396484 -0.6999999880790709 L -33.82699966430664 -0.6999999880790709 L -34.625 -0.6999999880790709 L -49.152000427246094 -0.6999999880790709 L -53.24800109863281 -0.6999999880790709 L -55.150001525878906 -0.6999999880790709 L -55.34400177001953 -0.7080000042915343 L -55.619998931884766 -0.7189999818801879 L -55.62501525878906 -0.7195883393287658 L -56.0890007019043 -0.7739999890327453 L -56.54999923706055 -0.8659999966621398 L -57.005001068115234 -0.9940000176429747 L -57.34400177001953 -1.119299292564392 L -57.44599914550781 -1.156999945640564 L -57.874000549316406 -1.3539999723434448 L -58.284000396728516 -1.5850000381469727 L -58.676998138427734 -1.8459999561309814 L -59.047000885009766 -2.138000011444092 L -59.393001556396484 -2.4579999446868896 L -59.7130012512207 -2.803999900817871 L -60.005001068115234 -3.1740000247955322 L -60.26499938964844 -3.565999984741211 L -60.36600112915039 -3.74399995803833 L -60.49700164794922 -3.9769999980926514 L -60.551902770996094 -4.0960001945495605 L -60.694000244140625 -4.4039998054504395 L -60.85599899291992 -4.8460001945495605 L -60.98500061035156 -5.300000190734863 L -61.07699966430664 -5.76200008392334 L -61.13199996948242 -6.230000019073486 L -61.1510009765625 -6.701000213623047 L -61.1510009765625 -8.192000389099121 L -61.1510009765625 -8.805999755859375 L -61.150001525878906 -16.031999588012695 L -61.150001525878906 -16.384000778198242 L -61.150001525878906 -26.225000381469727 L -61.150001525878906 -32.768001556396484 L -61.150001525878906 -45.275001525878906 L -61.150001525878906 -49.152000427246094 L -61.150001525878906 -64.32499694824219 L -61.150001525878906 -65.53600311279297 L -61.150001525878906 -70.375 L -61.150001525878906 -71.375 L -61.150001525878906 -81.91999816894531 L -61.150001525878906 -83.3740005493164 L -61.150001525878906 -90.11199951171875 L -61.150001525878906 -90.89900207519531 L -61.13199996948242 -91.37000274658203 L -61.07699966430664 -91.83799743652344 L -60.98500061035156 -92.30000305175781 L -60.85599899291992 -92.75399780273438 L -60.694000244140625 -93.19599914550781 L -60.49700164794922 -93.62300109863281 L -60.36600112915039 -93.85600280761719 L -60.26499938964844 -94.03399658203125 L -60.149593353271484 -94.20800018310547 L -60.005001068115234 -94.4260025024414 L -59.7130012512207 -94.7959976196289 L -59.393001556396484 -95.14199829101562 L -59.047000885009766 -95.46199798583984 L -58.676998138427734 -95.75399780273438 L -58.284000396728516 -96.01499938964844 L -57.874000549316406 -96.24600219726562 L -57.44599914550781 -96.44300079345703 L -57.34400177001953 -96.48069763183594 L -57.005001068115234 -96.60600280761719 L -56.54999923706055 -96.73400115966797 L -56.0890007019043 -96.82599639892578 L -55.62501525878906 -96.88040924072266 L -55.619998931884766 -96.88099670410156 L -55.34400177001953 -96.89199829101562 L -55.150001525878906 -96.9000015258789 L -53.24800109863281 -96.9000015258789 L -49.152000427246094 -96.9000015258789 L -34.625 -96.9000015258789 L -33.82699966430664 -96.9000015258789 L -32.768001556396484 -96.9000015258789 L -29.575000762939453 -96.9000015258789 L -22.575000762939453 -96.9000015258789 L -16.384000778198242 -96.89981079101562 L -15.574999809265137 -96.89978790283203 L -14.774999618530273 -96.8997573852539 L -13.003000259399414 -96.89970397949219 M 21.011999130249023 3.821000099182129 L 21.100000381469727 3.7624082565307617 L 21.40399932861328 3.559999942779541 L 21.815000534057617 3.3289999961853027 L 22.242000579833984 3.131999969482422 L 22.68400001525879 2.9690001010894775 L 23.13800048828125 2.8410000801086426 L 23.600000381469727 2.749000072479248 L 24.06800079345703 2.694000005722046 L 24.538999557495117 2.674999952316284 L 24.576000213623047 2.6750009059906006 L 32.768001556396484 2.6751956939697266 L 65.53600311279297 2.6759743690490723 L 66.61199951171875 2.6760001182556152 L 66.61199951171875 12.675999641418457 L 65.53600311279297 12.675999641418457 L 32.768001556396484 12.675999641418457 L 28.538999557495117 12.675999641418457 L 28.538999557495117 16.384000778198242 L 28.538999557495117 32.768001556396484 L 28.538999557495117 65.53600311279297 L 28.538999557495117 81.91999816894531 L 28.538999557495117 88.875 L 32.768001556396484 88.875 L 65.53600311279297 88.875 L 81.91999816894531 88.875 L 85.69000244140625 88.875 L 85.69000244140625 81.91999816894531 L 85.69000244140625 65.53600311279297 L 85.69000244140625 32.768001556396484 L 85.69000244140625 16.384000778198242 L 85.69000244140625 12.675999641418457 L 85.61699676513672 12.675999641418457 L 85.61699676513672 11.376079559326172 L 85.61699676513672 8.192000389099121 L 85.61699676513672 2.6760001182556152 L 89.69000244140625 2.6760001182556152 L 90.11199951171875 2.692161798477173 L 90.16000366210938 2.694000005722046 L 90.62799835205078 2.749000072479248 L 91.08999633789062 2.8410000801086426 L 91.54399871826172 2.9690001010894775 L 91.98600006103516 3.131999969482422 L 92.41300201416016 3.3289999961853027 L 92.8239974975586 3.559999942779541 L 93.21600341796875 3.821000099182129 L 93.56446075439453 4.0960001945495605 L 93.58599853515625 4.11299991607666 L 93.93199920654297 4.433000087738037 L 94.20800018310547 4.731424808502197 L 94.25199890136719 4.7789998054504395 L 94.54399871826172 5.14900016784668 L 94.80500030517578 5.540999889373779 L 95.03600311279297 5.952000141143799 L 95.23300170898438 6.379000186920166 L 95.39600372314453 6.821000099182129 L 95.52400207519531 7.275000095367432 L 95.61599731445312 7.736999988555908 L 95.66947174072266 8.192000389099121 L 95.6709976196289 8.204999923706055 L 95.69000244140625 8.675999641418457 L 95.69000244140625 16.384000778198242 L 95.69000244140625 32.768001556396484 L 95.69000244140625 65.53600311279297 L 95.69000244140625 81.91999816894531 L 95.69000244140625 88.875 L 95.69000244140625 90.11199951171875 L 95.69000244140625 92.1008071899414 L 95.69000244140625 92.875 L 95.6709976196289 93.34500122070312 L 95.61599731445312 93.81300354003906 L 95.53733825683594 94.20800018310547 L 95.52400207519531 94.2750015258789 L 95.39600372314453 94.72899627685547 L 95.23300170898438 95.1709976196289 L 95.03600311279297 95.5979995727539 L 94.80500030517578 96.00900268554688 L 94.54399871826172 96.4010009765625 L 94.25199890136719 96.77100372314453 L 94.20800018310547 96.81857299804688 L 93.93199920654297 97.11699676513672 L 93.58599853515625 97.43699645996094 L 93.21600341796875 97.72899627685547 L 92.8239974975586 97.98999786376953 L 92.41300201416016 98.22100067138672 L 92.23309326171875 98.30400085449219 L 91.98600006103516 98.41799926757812 L 91.54399871826172 98.58100128173828 L 91.08999633789062 98.70899963378906 L 90.62799835205078 98.8010025024414 L 90.16000366210938 98.85600280761719 L 89.68900299072266 98.875 L 65.53600311279297 98.875 L 32.768001556396484 98.875 L 24.538999557495117 98.875 L 24.06800079345703 98.85600280761719 L 23.600000381469727 98.8010025024414 L 23.13800048828125 98.70899963378906 L 22.68400001525879 98.58100128173828 L 22.242000579833984 98.41799926757812 L 21.994903564453125 98.30400085449219 L 21.815000534057617 98.22100067138672 L 21.40399932861328 97.98999786376953 L 21.100000381469727 97.78759002685547 L 21.053421020507812 97.75657653808594 L 21.011999130249023 97.72899627685547 L 20.642000198364258 97.43699645996094 L 20.479999542236328 97.28717041015625 L 20.29599952697754 97.11699676513672 L 19.97599983215332 96.77100372314453 L 19.68400001525879 96.4010009765625 L 19.42300033569336 96.00900268554688 L 19.191999435424805 95.5979995727539 L 18.9950008392334 95.1709976196289 L 18.832000732421875 94.72899627685547 L 18.70400047302246 94.2750015258789 L 18.690658569335938 94.20800018310547 L 18.61199951171875 93.81300354003906 L 18.55699920654297 93.34500122070312 L 18.538000106811523 92.8740005493164 L 18.538000106811523 90.11199951171875 L 18.538000106811523 88.875 L 18.538000106811523 81.91999816894531 L 18.538000106811523 67.7947998046875 L 18.538026809692383 65.53600311279297 L 18.53820037841797 50.9552001953125 L 18.538543701171875 32.768001556396484 L 18.538854598999023 16.384000778198242 L 18.538898468017578 14.072102546691895 L 18.538999557495117 8.675999641418457 L 18.55699920654297 8.204999923706055 L 18.55852699279785 8.192000389099121 L 18.61199951171875 7.736999988555908 L 18.70400047302246 7.275000095367432 L 18.832000732421875 6.821000099182129 L 18.9950008392334 6.379000186920166 L 19.191999435424805 5.952000141143799 L 19.42300033569336 5.540999889373779 L 19.68400001525879 5.14900016784668 L 19.97599983215332 4.7789998054504395 L 20.29599952697754 4.433000087738037 L 20.479999542236328 4.262826442718506 L 20.642000198364258 4.11299991607666 L 20.663541793823242 4.0960001945495605 L 21.011999130249023 3.821000099182129 M -135.69900512695312 98.19999694824219 L -136.1699981689453 98.18099975585938 L -136.63800048828125 98.1259994506836 L -137.10000610351562 98.03399658203125 L -137.5540008544922 97.90599822998047 L -137.99600219726562 97.74299621582031 L -138.40199279785156 97.5556869506836 L -138.42300415039062 97.5459976196289 L -138.83399963378906 97.31500244140625 L -139.2259979248047 97.05400085449219 L -139.26400756835938 97.02400970458984 L -139.5959930419922 96.76200103759766 L -139.94200134277344 96.44200134277344 L -140.26199340820312 96.09600067138672 L -140.5540008544922 95.72599792480469 L -140.81500244140625 95.33399963378906 L -141.04600524902344 94.9229965209961 L -141.2429962158203 94.49600219726562 L -141.406005859375 94.05400085449219 L -141.53399658203125 93.5999984741211 L -141.62600708007812 93.13800048828125 L -141.68099975585938 92.66999816894531 L -141.69998168945312 92.19953155517578 L -141.6999969482422 92.1989974975586 L -141.69996643066406 90.11199951171875 L -141.69985961914062 81.91999816894531 L -141.69981384277344 77.79595947265625 L -141.6996612548828 65.53600311279297 L -141.69927978515625 32.768001556396484 L -141.69908142089844 16.384000778198242 L -141.69900512695312 9.796113967895508 L -141.69900512695312 8.192000389099121 L -141.69900512695312 8.00100040435791 L -141.698974609375 8.000441551208496 L -141.68099975585938 7.53000020980835 L -141.62600708007812 7.061999797821045 L -141.53399658203125 6.599999904632568 L -141.406005859375 6.145999908447266 L -141.2429962158203 5.703999996185303 L -141.04600524902344 5.2769999504089355 L -140.81500244140625 4.866000175476074 L -140.5540008544922 4.473999977111816 L -140.26199340820312 4.104000091552734 L -139.94200134277344 3.757999897003174 L -139.5959930419922 3.437999963760376 L -139.26400756835938 3.1759891510009766 L -139.2259979248047 3.1459999084472656 L -138.83399963378906 2.884999990463257 L -138.42300415039062 2.6540000438690186 L -137.99600219726562 2.4570000171661377 L -137.5540008544922 2.2939999103546143 L -137.10000610351562 2.1659998893737793 L -136.63800048828125 2.0739998817443848 L -136.1699981689453 2.0190000534057617 L -135.69900512695312 2 L -135.16799926757812 2.0000081062316895 L -134.79800415039062 2.000013828277588 L -131.07200622558594 2.0000710487365723 L -98.30400085449219 2.0005738735198975 L -81.91999816894531 2.0008254051208496 L -73.72799682617188 2.0009512901306152 L -71.302001953125 2.000988483428955 L -70.55000305175781 2.000999927520752 L -70.08000183105469 2.0190000534057617 L -69.63200378417969 2.0716495513916016 L -69.61199951171875 2.0739998817443848 L -69.1500015258789 2.1659998893737793 L -68.69599914550781 2.2939999103546143 L -68.25399780273438 2.4570000171661377 L -67.8270034790039 2.6540000438690186 L -67.41600036621094 2.884999990463257 L -67.02400207519531 3.1459999084472656 L -66.65399932861328 3.437999963760376 L -66.30799865722656 3.757999897003174 L -65.99539947509766 4.0960001945495605 L -65.98799896240234 4.104000091552734 L -65.69599914550781 4.473999977111816 L -65.53600311279297 4.714306354522705 L -65.43499755859375 4.866000175476074 L -65.2040023803711 5.2769999504089355 L -65.00700378417969 5.703999996185303 L -64.84400177001953 6.145999908447266 L -64.71600341796875 6.599999904632568 L -64.6240005493164 7.061999797821045 L -64.56900024414062 7.53000020980835 L -64.55000305175781 8.00100040435791 L -64.55000305175781 65.53600311279297 L -64.55000305175781 92.19999694824219 L -64.56900024414062 92.66999816894531 L -64.6240005493164 93.13800048828125 L -64.71600341796875 93.5999984741211 L -64.84400177001953 94.05400085449219 L -65.00700378417969 94.49600219726562 L -65.2040023803711 94.9229965209961 L -65.43499755859375 95.33399963378906 L -65.53600311279297 95.4856948852539 L -65.69599914550781 95.72599792480469 L -65.98799896240234 96.09600067138672 L -66.30799865722656 96.44200134277344 L -66.65399932861328 96.76200103759766 L -67.02400207519531 97.05400085449219 L -67.41600036621094 97.31500244140625 L -67.8270034790039 97.5459976196289 L -68.25399780273438 97.74299621582031 L -68.69599914550781 97.90599822998047 L -69.1500015258789 98.03399658203125 L -69.61199951171875 98.1259994506836 L -69.63200378417969 98.12834930419922 L -70.08000183105469 98.18099975585938 L -70.26348876953125 98.18840026855469 L -70.5510025024414 98.19999694824219 L -71.25199890136719 98.19999694824219 L -71.83663940429688 98.19999694824219 L -73.72799682617188 98.19999694824219 L -74.55000305175781 98.19999694824219 L -81.91999816894531 98.19999694824219 L -98.30400085449219 98.19999694824219 L -131.07200622558594 98.19999694824219 L -135.16799926757812 98.19999694824219 L -135.69900512695312 98.19999694824219 M -48.624000549316406 -80.27400207519531 L -48.624000549316406 -74.47599792480469 L -49.42599868774414 -74.47599792480469 L -49.42599868774414 -71.375 L -48.624000549316406 -71.375 L -48.624000549316406 -70.375 L -34.625 -70.375 L -34.625 -71.375 L -33.82699966430664 -71.375 L -33.82699966430664 -74.47599792480469 L -34.625 -74.47599792480469 L -34.625 -80.27400207519531 L -33.82699966430664 -80.27400207519531 L -33.82699966430664 -81.91999816894531 L -33.82699966430664 -83.3740005493164 L -34.625 -83.3740005493164 L -34.625 -84.3740005493164 L -48.624000549316406 -84.3740005493164 L -48.624000549316406 -83.3740005493164 L -49.152000427246094 -83.3740005493164 L -49.42599868774414 -83.3740005493164 L -49.42599868774414 -81.91999816894531 L -49.42599868774414 -80.27400207519531 L -48.624000549316406 -80.27400207519531 M -29.575000762939453 -64.32499694824219 L -30.375 -64.32499694824219 L -30.375 -61.224998474121094 L -29.575000762939453 -61.224998474121094 L -29.575000762939453 -55.42499923706055 L -30.375 -55.42499923706055 L -30.375 -52.32500076293945 L -29.575000762939453 -52.32500076293945 L -29.575000762939453 -51.32500076293945 L -16.384000778198242 -51.32500076293945 L -15.574999809265137 -51.32500076293945 L -15.574999809265137 -52.32500076293945 L -14.774999618530273 -52.32500076293945 L -14.774999618530273 -55.42499923706055 L -15.574999809265137 -55.42499923706055 L -15.574999809265137 -61.224998474121094 L -14.774999618530273 -61.224998474121094 L -14.774999618530273 -64.32499694824219 L -15.574999809265137 -64.32499694824219 L -15.574999809265137 -65.32499694824219 L -16.384000778198242 -65.32499694824219 L -29.575000762939453 -65.32499694824219 L -29.575000762939453 -64.32499694824219 M -140.53399658203125 -3.684999942779541 L -140.92599487304688 -3.946000099182129 L -141.11607360839844 -4.0960001945495605 L -141.29600524902344 -4.23799991607666 L -141.64199829101562 -4.558000087738037 L -141.6999969482422 -4.6207122802734375 L -141.96200561523438 -4.9039998054504395 L -142.25399780273438 -5.27400016784668 L -142.51499938964844 -5.665999889373779 L -142.74600219726562 -6.077000141143799 L -142.9429931640625 -6.504000186920166 L -143.1060028076172 -6.946000099182129 L -143.23399353027344 -7.400000095367432 L -143.3260040283203 -7.861999988555908 L -143.36477661132812 -8.192000389099121 L -143.38099670410156 -8.329999923706055 L -143.38845825195312 -8.515019416809082 L -143.3999786376953 -8.800471305847168 L -143.39999389648438 -8.800999641418457 L -143.39990234375 -16.384000778198242 L -143.39981079101562 -23.20404052734375 L -143.39968872070312 -32.768001556396484 L -143.39930725097656 -65.53600311279297 L -143.39910888671875 -81.91999816894531 L -143.39901733398438 -90.11199951171875 L -143.3990020751953 -91.20388793945312 L -143.3990020751953 -92.9990005493164 L -143.3989715576172 -92.99955749511719 L -143.38099670410156 -93.47000122070312 L -143.3260040283203 -93.93800354003906 L -143.27223205566406 -94.20800018310547 L -143.23399353027344 -94.4000015258789 L -143.1060028076172 -94.85399627685547 L -142.9429931640625 -95.2959976196289 L -142.74600219726562 -95.7229995727539 L -142.51499938964844 -96.13400268554688 L -142.25399780273438 -96.5260009765625 L -141.96200561523438 -96.89600372314453 L -141.6999969482422 -97.17929077148438 L -141.64199829101562 -97.24199676513672 L -141.29600524902344 -97.56199645996094 L -140.92599487304688 -97.85399627685547 L -140.53399658203125 -98.11499786376953 L -140.19772338867188 -98.30400085449219 L -140.1230010986328 -98.34600067138672 L -139.6959991455078 -98.54299926757812 L -139.25399780273438 -98.70600128173828 L -138.8000030517578 -98.83399963378906 L -138.33799743652344 -98.9260025024414 L -137.8699951171875 -98.98100280761719 L -137.3990020751953 -99 L -131.07200622558594 -98.9999008178711 L -98.30400085449219 -98.99939727783203 L -72.25 -98.9990005493164 L -71.77999877929688 -98.98100280761719 L -71.31199645996094 -98.9260025024414 L -70.8499984741211 -98.83399963378906 L -70.39600372314453 -98.70600128173828 L -69.9540023803711 -98.54299926757812 L -69.5270004272461 -98.34600067138672 L -69.4522705078125 -98.30400085449219 L -69.11599731445312 -98.11499786376953 L -68.7239990234375 -97.85399627685547 L -68.35399627685547 -97.56199645996094 L -68.00800323486328 -97.24199676513672 L -67.68800354003906 -96.89600372314453 L -67.39600372314453 -96.5260009765625 L -67.13500213623047 -96.13400268554688 L -66.90399932861328 -95.7229995727539 L -66.70700073242188 -95.2959976196289 L -66.54399871826172 -94.85399627685547 L -66.41600036621094 -94.4000015258789 L -66.37776947021484 -94.20800018310547 L -66.3239974975586 -93.93800354003906 L -66.26899719238281 -93.47000122070312 L -66.25 -92.9990005493164 L -66.25 -92.1969985961914 L -66.25 -90.11199951171875 L -66.25 -88.9990005493164 L -66.25 -81.91999816894531 L -66.25 -65.53600311279297 L -66.25 -32.768001556396484 L -66.25 -16.384000778198242 L -66.25 -10.086637496948242 L -66.25 -8.800000190734863 L -66.26899719238281 -8.329999923706055 L -66.28521728515625 -8.192000389099121 L -66.3239974975586 -7.861999988555908 L -66.41600036621094 -7.400000095367432 L -66.54399871826172 -6.946000099182129 L -66.70700073242188 -6.504000186920166 L -66.90399932861328 -6.077000141143799 L -66.94896697998047 -5.997000217437744 L -67.13500213623047 -5.665999889373779 L -67.39600372314453 -5.27400016784668 L -67.68800354003906 -4.9039998054504395 L -68.00800323486328 -4.558000087738037 L -68.35399627685547 -4.23799991607666 L -68.7239990234375 -3.946000099182129 L -69.11599731445312 -3.684999942779541 L -69.5270004272461 -3.4539999961853027 L -69.63200378417969 -3.40555739402771 L -69.9540023803711 -3.256999969482422 L -70.39600372314453 -3.0940001010894775 L -70.8499984741211 -2.9660000801086426 L -71.31199645996094 -2.874000072479248 L -71.77999877929688 -2.819000005722046 L -72.2509994506836 -2.799999952316284 L -73.72799682617188 -2.799999952316284 L -76.25 -2.799999952316284 L -81.91999816894531 -2.799999952316284 L -98.30400085449219 -2.799999952316284 L -131.07200622558594 -2.799999952316284 L -137.3990020751953 -2.799999952316284 L -137.8699951171875 -2.819000005722046 L -138.33799743652344 -2.874000072479248 L -138.8000030517578 -2.9660000801086426 L -139.25399780273438 -3.0940001010894775 L -139.26400756835938 -3.0976877212524414 L -139.6959991455078 -3.256999969482422 L -140.1230010986328 -3.4539999961853027 L -140.53399658203125 -3.684999942779541 M -48.624000549316406 -55.42499923706055 L -49.152000427246094 -55.42499923706055 L -49.42599868774414 -55.42499923706055 L -49.42599868774414 -52.32500076293945 L -49.152000427246094 -52.32500076293945 L -48.624000549316406 -52.32500076293945 L -48.624000549316406 -51.32500076293945 L -34.625 -51.32500076293945 L -34.625 -52.32500076293945 L -33.82699966430664 -52.32500076293945 L -33.82699966430664 -55.42499923706055 L -34.625 -55.42499923706055 L -34.625 -57.34400177001953 L -34.625 -61.224998474121094 L -33.82699966430664 -61.224998474121094 L -33.82699966430664 -64.32499694824219 L -34.625 -64.32499694824219 L -34.625 -65.32499694824219 L -48.624000549316406 -65.32499694824219 L -48.624000549316406 -64.32499694824219 L -49.152000427246094 -64.32499694824219 L -49.42599868774414 -64.32499694824219 L -49.42599868774414 -61.224998474121094 L -49.152000427246094 -61.224998474121094 L -48.624000549316406 -61.224998474121094 L -48.624000549316406 -57.34400177001953 L -48.624000549316406 -55.42499923706055 M -48.624000549316406 -42.17499923706055 L -48.624000549316406 -40.959999084472656 L -48.624000549316406 -36.375 L -49.152000427246094 -36.375 L -49.42599868774414 -36.375 L -49.42599868774414 -33.275001525878906 L -49.152000427246094 -33.275001525878906 L -48.624000549316406 -33.275001525878906 L -48.624000549316406 -32.768001556396484 L -48.624000549316406 -32.275001525878906 L -34.625 -32.275001525878906 L -34.625 -32.768001556396484 L -34.625 -33.275001525878906 L -33.82699966430664 -33.275001525878906 L -33.82699966430664 -36.375 L -34.625 -36.375 L -34.625 -40.959999084472656 L -34.625 -42.17499923706055 L -33.82699966430664 -42.17499923706055 L -33.82699966430664 -45.275001525878906 L -34.625 -45.275001525878906 L -34.625 -46.275001525878906 L -48.624000549316406 -46.275001525878906 L -48.624000549316406 -45.275001525878906 L -49.152000427246094 -45.275001525878906 L -49.42599868774414 -45.275001525878906 L -49.42599868774414 -42.17499923706055 L -49.152000427246094 -42.17499923706055 L -48.624000549316406 -42.17499923706055 M -29.575000762939453 -74.47599792480469 L -30.375 -74.47599792480469 L -30.375 -71.375 L -29.575000762939453 -71.375 L -29.575000762939453 -70.375 L -16.384000778198242 -70.375 L -15.574999809265137 -70.375 L -15.574999809265137 -71.375 L -14.774999618530273 -71.375 L -14.774999618530273 -74.47599792480469 L -15.574999809265137 -74.47599792480469 L -15.574999809265137 -80.27400207519531 L -14.774999618530273 -80.27400207519531 L -14.774999618530273 -83.3740005493164 L -15.574999809265137 -83.3740005493164 L -15.574999809265137 -84.3740005493164 L -16.384000778198242 -84.3740005493164 L -29.575000762939453 -84.3740005493164 L -29.575000762939453 -83.3740005493164 L -30.375 -83.3740005493164 L -30.375 -80.27400207519531 L -29.575000762939453 -80.27400207519531 L -29.575000762939453 -74.47599792480469 M -15.574999809265137 -42.17499923706055 L -14.774999618530273 -42.17499923706055 L -14.774999618530273 -45.275001525878906 L -15.574999809265137 -45.275001525878906 L -15.574999809265137 -46.275001525878906 L -16.384000778198242 -46.275001525878906 L -29.575000762939453 -46.275001525878906 L -29.575000762939453 -45.275001525878906 L -30.375 -45.275001525878906 L -30.375 -42.17499923706055 L -29.575000762939453 -42.17499923706055 L -29.575000762939453 -36.375 L -30.375 -36.375 L -30.375 -33.275001525878906 L -29.575000762939453 -33.275001525878906 L -29.575000762939453 -32.768001556396484 L -29.575000762939453 -32.275001525878906 L -16.384000778198242 -32.275001525878906 L -15.574999809265137 -32.275001525878906 L -15.574999809265137 -32.768001556396484 L -15.574999809265137 -33.275001525878906 L -14.774999618530273 -33.275001525878906 L -14.774999618530273 -36.375 L -15.574999809265137 -36.375 L -15.574999809265137 -42.17499923706055 M -48.624000549316406 -17.326000213623047 L -49.152000427246094 -17.326000213623047 L -49.42599868774414 -17.326000213623047 L -49.42599868774414 -16.384000778198242 L -49.42599868774414 -14.22599983215332 L -49.152000427246094 -14.22599983215332 L -48.624000549316406 -14.22599983215332 L -48.624000549316406 -13.22599983215332 L -34.625 -13.22599983215332 L -34.625 -14.22599983215332 L -33.82699966430664 -14.22599983215332 L -33.82699966430664 -16.384000778198242 L -33.82699966430664 -17.326000213623047 L -34.625 -17.326000213623047 L -34.625 -23.125999450683594 L -33.82699966430664 -23.125999450683594 L -33.82699966430664 -26.225000381469727 L -34.625 -26.225000381469727 L -34.625 -27.225000381469727 L -48.624000549316406 -27.225000381469727 L -48.624000549316406 -26.225000381469727 L -49.152000427246094 -26.225000381469727 L -49.42599868774414 -26.225000381469727 L -49.42599868774414 -23.125999450683594 L -49.152000427246094 -23.125999450683594 L -48.624000549316406 -23.125999450683594 L -48.624000549316406 -17.326000213623047 M 8.822587013244629 92.33844757080078 L 8.583000183105469 92.80799865722656 L 8.580581665039062 92.82341766357422 L 8.498000144958496 93.3499984741211 L 8.501078605651855 93.36962890625 L 8.583000183105469 93.89199829101562 L 8.601238250732422 93.92774200439453 L 8.744237899780273 94.20800018310547 L 8.831999778747559 94.37999725341797 L 9.220000267028809 94.76799774169922 L 9.708000183105469 95.01699829101562 L 9.843500137329102 95.03849792480469 L 10.25 95.10299682617188 L 10.422215461730957 95.07567596435547 L 10.791999816894531 95.01699829101562 L 10.975038528442383 94.9236068725586 L 11.279999732971191 94.76799774169922 L 11.447362899780273 94.60063934326172 L 11.668000221252441 94.37999725341797 L 11.755762100219727 94.20800018310547 L 11.916999816894531 93.89199829101562 L 11.957548141479492 93.6364517211914 L 12.003000259399414 93.3499984741211 L 11.96345329284668 93.10076904296875 L 11.916999816894531 92.80799865722656 L 11.811637878417969 92.60150909423828 L 11.668000221252441 92.31999969482422 L 11.520123481750488 92.17212677001953 L 11.279999732971191 91.93199920654297 L 11.125065803527832 91.85294342041016 L 10.827744483947754 91.70124053955078 L 10.791999816894531 91.68299865722656 L 10.25 91.5979995727539 L 9.708000183105469 91.68299865722656 L 9.220000267028809 91.93199920654297 L 9.19367790222168 91.95832061767578 L 8.831999778747559 92.31999969482422 L 8.822587013244629 92.33844757080078 M 11.866999626159668 7.691999912261963 L 11.897930145263672 7.4970703125 L 11.95300006866455 7.150000095367432 L 11.87925910949707 6.685258865356445 L 11.866999626159668 6.607999801635742 L 11.618000030517578 6.119999885559082 L 11.229999542236328 5.73199987411499 L 10.741999626159668 5.482999801635742 L 10.664910316467285 5.47091007232666 L 10.259364128112793 5.4073100090026855 L 10.239999771118164 5.40427303314209 L 10.199999809265137 5.3979997634887695 L 9.657999992370605 5.482999801635742 L 9.170000076293945 5.73199987411499 L 8.781999588012695 6.119999885559082 L 8.754329681396484 6.174229145050049 L 8.532999992370605 6.607999801635742 L 8.521096229553223 6.683903694152832 L 8.447999954223633 7.150000095367432 L 8.46296501159668 7.245425224304199 L 8.532999992370605 7.691999912261963 L 8.589574813842773 7.802878379821777 L 8.781999588012695 8.180000305175781 L 8.793999671936035 8.192000389099121 L 9.170000076293945 8.567999839782715 L 9.657999992370605 8.817000389099121 L 9.851740837097168 8.84774112701416 L 9.99039077758789 8.869741439819336 L 10.199999809265137 8.902999877929688 L 10.741999626159668 8.817000389099121 L 11.229999542236328 8.567999839782715 L 11.605999946594238 8.192000389099121 L 11.618000030517578 8.180000305175781 L 11.866999626159668 7.691999912261963 M -57.34400177001953 91.66776275634766 L -57.441001892089844 91.68299865722656 L -57.93000030517578 91.93199920654297 L -57.95650863647461 91.95851135253906 L -58.31800079345703 92.31999969482422 L -58.327762603759766 92.3391342163086 L -58.56700134277344 92.80799865722656 L -58.652000427246094 93.3499984741211 L -58.648685455322266 93.37113189697266 L -58.56700134277344 93.89199829101562 L -58.547996520996094 93.92924499511719 L -58.40576171875 94.20800018310547 L -58.31800079345703 94.37999725341797 L -57.93000030517578 94.76799774169922 L -57.441001892089844 95.01699829101562 L -57.34400177001953 95.03241729736328 L -57.14836120605469 95.06352233886719 L -56.900001525878906 95.10299682617188 L -56.358001708984375 95.01699829101562 L -55.869998931884766 94.76799774169922 L -55.481998443603516 94.37999725341797 L -55.39423751831055 94.20800018310547 L -55.3678092956543 94.15620422363281 L -55.233001708984375 93.89199829101562 L -55.19264221191406 93.63764190673828 L -55.14699935913086 93.3499984741211 L -55.186309814453125 93.10226440429688 L -55.233001708984375 92.80799865722656 L -55.33760070800781 92.60299682617188 L -55.43745040893555 92.40731048583984 L -55.481998443603516 92.31999969482422 L -55.869998931884766 91.93199920654297 L -56.322021484375 91.70135498046875 L -56.358001708984375 91.68299865722656 L -56.900001525878906 91.5979995727539 L -57.34400177001953 91.66776275634766 M -138.29800415039062 93.82923889160156 L -138.104736328125 94.20800018310547 L -138.0679931640625 94.27999877929688 L -137.67999267578125 94.66799926757812 L -137.1909942626953 94.91699981689453 L -137.05545043945312 94.93854522705078 L -136.8983612060547 94.96351623535156 L -136.64999389648438 95.00299835205078 L -136.10800170898438 94.91699981689453 L -135.6199951171875 94.66799926757812 L -135.23199462890625 94.27999877929688 L -135.1952667236328 94.20800018310547 L -135.16799926757812 94.15457153320312 L -134.98300170898438 93.79199981689453 L -134.89700317382812 93.25 L -134.98300170898438 92.70800018310547 L -135.16799926757812 92.34542846679688 L -135.1874542236328 92.30731201171875 L -135.23199462890625 92.22000122070312 L -135.6199951171875 91.83200073242188 L -136.072021484375 91.60135650634766 L -136.10800170898438 91.58300018310547 L -136.64999389648438 91.49800109863281 L -137.1909942626953 91.58300018310547 L -137.67999267578125 91.83200073242188 L -137.70651245117188 91.85850524902344 L -138.0679931640625 92.22000122070312 L -138.0777587890625 92.2391357421875 L -138.31700134277344 92.70800018310547 L -138.40199279785156 93.25 L -138.398681640625 93.27113342285156 L -138.31700134277344 93.79199981689453 L -138.29800415039062 93.82923889160156 M 26.90999984741211 -93.88700103759766 L 26.687999725341797 -94.10900115966797 L 26.624000549316406 -94.14169311523438 L 26.494182586669922 -94.20800018310547 L 26.40999984741211 -94.2509994506836 L 26.10099983215332 -94.29900360107422 L 25.791000366210938 -94.2509994506836 L 25.706817626953125 -94.20800018310547 L 25.51300048828125 -94.10900115966797 L 25.291000366210938 -93.88700103759766 L 25.14900016784668 -93.60900115966797 L 25.100000381469727 -93.29900360107422 L 25.14900016784668 -92.98999786376953 L 25.291000366210938 -92.71199798583984 L 25.51300048828125 -92.48999786376953 L 25.791000366210938 -92.3479995727539 L 26.100000381469727 -92.29900360107422 L 26.40999984741211 -92.3479995727539 L 26.624000549316406 -92.45730590820312 L 26.687999725341797 -92.48999786376953 L 26.90999984741211 -92.71199798583984 L 27.052000045776367 -92.98999786376953 L 27.10099983215332 -93.29900360107422 L 27.052000045776367 -93.60900115966797 L 26.90999984741211 -93.88700103759766 M -71.16941833496094 92.72341918945312 L -71.25199890136719 93.25 L -71.2489242553711 93.2696304321289 L -71.16699981689453 93.79199981689453 L -71.14875793457031 93.82774353027344 L -70.9547348022461 94.20800018310547 L -70.91799926757812 94.27999877929688 L -70.87255096435547 94.32544708251953 L -70.52999877929688 94.66799926757812 L -70.44200134277344 94.71289825439453 L -70.04199981689453 94.91699981689453 L -69.90650177001953 94.9384994506836 L -69.63200378417969 94.9820556640625 L -69.5 95.00299835205078 L -68.95800018310547 94.91699981689453 L -68.77496337890625 94.8236083984375 L -68.47000122070312 94.66799926757812 L -68.3026351928711 94.50064086914062 L -68.08200073242188 94.27999877929688 L -68.0452651977539 94.20800018310547 L -67.83300018310547 93.79199981689453 L -67.79244995117188 93.53645324707031 L -67.74700164794922 93.25 L -67.78654479980469 93.00077056884766 L -67.83300018310547 92.70800018310547 L -67.93836212158203 92.50151062011719 L -68.08200073242188 92.22000122070312 L -68.22987365722656 92.0721206665039 L -68.47000122070312 91.83200073242188 L -68.62493133544922 91.75294494628906 L -68.92225646972656 91.60124206542969 L -68.95800018310547 91.58300018310547 L -69.5 91.49800109863281 L -69.63200378417969 91.5186996459961 L -70.04199981689453 91.58300018310547 L -70.52999877929688 91.83200073242188 L -70.55632019042969 91.85832214355469 L -70.91799926757812 92.22000122070312 L -70.92741394042969 92.23844909667969 L -71.16699981689453 92.70800018310547 L -71.16941833496094 92.72341918945312 M -55.638362884521484 5.913635730743408 L -55.77000045776367 5.7820000648498535 L -56.02497863769531 5.6518988609313965 L -56.257999420166016 5.5329999923706055 L -56.4525032043457 5.502496719360352 L -56.79999923706055 5.447999954223633 L -57.34199905395508 5.5329999923706055 L -57.34400177001953 5.53402042388916 L -57.70987319946289 5.720706462860107 L -57.83000183105469 5.7820000648498535 L -58.043060302734375 5.995058536529541 L -58.21799850463867 6.170000076293945 L -58.32590103149414 6.381899833679199 L -58.46699905395508 6.658999919891357 L -58.503177642822266 6.8865766525268555 L -58.553001403808594 7.199999809265137 L -58.50859832763672 7.479825496673584 L -58.46699905395508 7.742000102996826 L -58.29469299316406 8.079697608947754 L -58.237388610839844 8.192000389099121 L -58.21799850463867 8.229999542236328 L -57.83000183105469 8.618000030517578 L -57.34199905395508 8.866999626159668 L -57.26593017578125 8.879070281982422 L -56.79999923706055 8.95300006866455 L -56.62995147705078 8.926017761230469 L -56.257999420166016 8.866999626159668 L -56.02537155151367 8.748302459716797 L -55.77000045776367 8.618000030517578 L -55.525482177734375 8.373483657836914 L -55.38199996948242 8.229999542236328 L -55.36260986328125 8.192000389099121 L -55.295867919921875 8.06119155883789 L -55.132999420166016 7.742000102996826 L -55.04800033569336 7.199999809265137 L -55.132999420166016 6.658999919891357 L -55.38199996948242 6.170000076293945 L -55.638362884521484 5.913635730743408 M -55.23094940185547 -93.35516357421875 L -55.60300064086914 -93.54499816894531 L -55.7192268371582 -93.56322479248047 L -56.0456428527832 -93.61441802978516 L -56.14500045776367 -93.62999725341797 L -56.6870002746582 -93.54499816894531 L -57.17499923706055 -93.2959976196289 L -57.34400177001953 -93.12699890136719 L -57.5629997253418 -92.90799713134766 L -57.8120002746582 -92.41999816894531 L -57.82862854003906 -92.31396484375 L -57.85277557373047 -92.16000366210938 L -57.89699935913086 -91.87799835205078 L -57.87961959838867 -91.76716613769531 L -57.836631774902344 -91.4930648803711 L -57.8120002746582 -91.33599853515625 L -57.5629997253418 -90.8479995727539 L -57.34400177001953 -90.62899780273438 L -57.17499923706055 -90.45999908447266 L -56.6870002746582 -90.21099853515625 L -56.534271240234375 -90.186767578125 L -56.14500045776367 -90.125 L -55.97995376586914 -90.15119171142578 L -55.60300064086914 -90.21099853515625 L -55.1150016784668 -90.45999908447266 L -54.72700119018555 -90.8479995727539 L -54.649505615234375 -90.9998779296875 L -54.64781188964844 -91.0031967163086 L -54.47800064086914 -91.33599853515625 L -54.391998291015625 -91.87799835205078 L -54.436744689941406 -92.16000366210938 L -54.47800064086914 -92.41999816894531 L -54.72700119018555 -92.90799713134766 L -55.1150016784668 -93.2959976196289 L -55.23094940185547 -93.35516357421875 M 11.922757148742676 -93.353271484375 L 11.54699993133545 -93.54499816894531 L 11.43077278137207 -93.56322479248047 L 11.005000114440918 -93.62999725341797 L 10.463000297546387 -93.54499816894531 L 10.371172904968262 -93.4981460571289 L 9.975000381469727 -93.2959976196289 L 9.586999893188477 -92.90799713134766 L 9.542930603027344 -92.8216323852539 L 9.338000297546387 -92.41999816894531 L 9.297224998474121 -92.16000366210938 L 9.253000259399414 -91.87799835205078 L 9.338000297546387 -91.33599853515625 L 9.394120216369629 -91.22601318359375 L 9.586999893188477 -90.8479995727539 L 9.680440902709961 -90.75456237792969 L 9.975000381469727 -90.45999908447266 L 10.31052017211914 -90.28880310058594 L 10.463000297546387 -90.21099853515625 L 11.005000114440918 -90.125 L 11.37940788269043 -90.18441009521484 L 11.54699993133545 -90.21099853515625 L 12.03499984741211 -90.45999908447266 L 12.288000106811523 -90.71299743652344 L 12.311726570129395 -90.73672485351562 L 12.42300033569336 -90.8479995727539 L 12.67199993133545 -91.33599853515625 L 12.758000373840332 -91.87799835205078 L 12.713254928588867 -92.16000366210938 L 12.67199993133545 -92.41999816894531 L 12.605504989624023 -92.5503158569336 L 12.42300033569336 -92.90799713134766 L 12.320308685302734 -93.01068878173828 L 12.288000106811523 -93.04299926757812 L 12.03499984741211 -93.2959976196289 L 11.922757148742676 -93.353271484375 M -135.1320037841797 6.070000171661377 L -135.16799926757812 6.033999919891357 L -135.38836669921875 5.81363582611084 L -135.52000427246094 5.682000160217285 L -135.7749786376953 5.551898956298828 L -136.00799560546875 5.433000087738037 L -136.20249938964844 5.402496814727783 L -136.5500030517578 5.3480000495910645 L -137.0919952392578 5.433000087738037 L -137.10104370117188 5.4376115798950195 L -137.45986938476562 5.620706558227539 L -137.5800018310547 5.682000160217285 L -137.79306030273438 5.895058631896973 L -137.96800231933594 6.070000171661377 L -138.07589721679688 6.281899929046631 L -138.2169952392578 6.559000015258789 L -138.253173828125 6.786576747894287 L -138.30299377441406 7.099999904632568 L -138.25860595703125 7.379825115203857 L -138.2169952392578 7.642000198364258 L -138.04469299316406 7.979697227478027 L -137.96800231933594 8.130000114440918 L -137.906005859375 8.192000389099121 L -137.5800018310547 8.517999649047852 L -137.0919952392578 8.767000198364258 L -137.01593017578125 8.779069900512695 L -136.5500030517578 8.852999687194824 L -136.37994384765625 8.826018333435059 L -136.00799560546875 8.767000198364258 L -135.77537536621094 8.648303031921387 L -135.52000427246094 8.517999649047852 L -135.27548217773438 8.273483276367188 L -135.19400024414062 8.192000389099121 L -135.16799926757812 8.166000366210938 L -135.1320037841797 8.130000114440918 L -134.88299560546875 7.642000198364258 L -134.79800415039062 7.099999904632568 L -134.88299560546875 6.559000015258789 L -135.1320037841797 6.070000171661377 M -70.99566650390625 6.0742292404174805 L -71.21700286865234 6.507999897003174 L -71.2289047241211 6.583903789520264 L -71.302001953125 7.050000190734863 L -71.28703308105469 7.145425319671631 L -71.21700286865234 7.5920000076293945 L -71.1604232788086 7.702878475189209 L -70.96800231933594 8.079999923706055 L -70.8633804321289 8.18461799621582 L -70.85600280761719 8.192000389099121 L -70.58000183105469 8.468000411987305 L -70.09200286865234 8.717000007629395 L -69.89826202392578 8.74774169921875 L -69.75960540771484 8.76974105834961 L -69.55000305175781 8.803000450134277 L -69.00800323486328 8.717000007629395 L -68.5199966430664 8.468000411987305 L -68.24400329589844 8.192000389099121 L -68.13200378417969 8.079999923706055 L -67.88300323486328 7.5920000076293945 L -67.8520736694336 7.397070407867432 L -67.7969970703125 7.050000190734863 L -67.87074279785156 6.585258960723877 L -67.88300323486328 6.507999897003174 L -68.13200378417969 6.019999980926514 L -68.5199966430664 5.631999969482422 L -69.00800323486328 5.382999897003174 L -69.08509063720703 5.370910167694092 L -69.55000305175781 5.297999858856201 L -69.6101303100586 5.307429790496826 L -69.63200378417969 5.310859680175781 L -70.09200286865234 5.382999897003174 L -70.58000183105469 5.631999969482422 L -70.96800231933594 6.019999980926514 L -70.99566650390625 6.0742292404174805 M -51.94900131225586 12.10099983215332 L -51.94900131225586 14.196000099182129 L -51.94900131225586 16.384000778198242 L -51.94900131225586 32.768001556396484 L -51.94900131225586 65.53600311279297 L -51.94900131225586 81.91999816894531 L -51.94900131225586 88.30000305175781 L -49.152000427246094 88.30000305175781 L -32.768001556396484 88.30000305175781 L 0 88.30000305175781 L 5.199999809265137 88.30000305175781 L 5.199999809265137 81.91999816894531 L 5.199999809265137 65.53600311279297 L 5.199999809265137 32.768001556396484 L 5.199999809265137 16.384000778198242 L 5.199999809265137 12.10099983215332 L 0 12.10099983215332 L -32.768001556396484 12.10099983215332 L -49.152000427246094 12.10099983215332 L -50.399234771728516 12.10099983215332 L -51.94900131225586 12.10099983215332 M 12.59858226776123 -5.090105056762695 L 12.621999740600586 -5.136000156402588 L 12.708000183105469 -5.677999973297119 L 12.621999740600586 -6.21999979019165 L 12.373000144958496 -6.708000183105469 L 12.330141067504883 -6.750858783721924 L 12.288000106811523 -6.793000221252441 L 11.984999656677246 -7.0960001945495605 L 11.496999740600586 -7.34499979019165 L 11.093539237976074 -7.408273220062256 L 11.088763236999512 -7.409022331237793 L 10.954999923706055 -7.429999828338623 L 10.413000106811523 -7.34499979019165 L 9.925000190734863 -7.0960001945495605 L 9.536999702453613 -6.708000183105469 L 9.47618579864502 -6.5888142585754395 L 9.288000106811523 -6.21999979019165 L 9.276081085205078 -6.144000053405762 L 9.20300006866455 -5.677999973297119 L 9.288000106811523 -5.136000156402588 L 9.382216453552246 -4.951350212097168 L 9.536999702453613 -4.6479997634887695 L 9.689987182617188 -4.4950127601623535 L 9.925000190734863 -4.260000228881836 L 10.246413230895996 -4.0960001945495605 L 10.413000106811523 -4.011000156402588 L 10.954999923706055 -3.924999952316284 L 11.496999740600586 -4.011000156402588 L 11.663586616516113 -4.0960001945495605 L 11.984999656677246 -4.260000228881836 L 12.100963592529297 -4.375964164733887 L 12.288000106811523 -4.563000202178955 L 12.373000144958496 -4.6479997634887695 L 12.59858226776123 -5.090105056762695 M 93.55899810791016 -6.14900016784668 L 93.83699798583984 -6.290999889373779 L 94.05899810791016 -6.513000011444092 L 94.20099639892578 -6.790999889373779 L 94.20800018310547 -6.835143089294434 L 94.25 -7.099999904632568 L 94.20800018310547 -7.365714073181152 L 94.20099639892578 -7.409999847412109 L 94.05899810791016 -7.688000202178955 L 93.83699798583984 -7.909999847412109 L 93.55899810791016 -8.052000045776367 L 93.25 -8.100000381469727 L 92.94000244140625 -8.052000045776367 L 92.66200256347656 -7.909999847412109 L 92.44000244140625 -7.688000202178955 L 92.2979965209961 -7.409999847412109 L 92.26052856445312 -7.168000221252441 L 92.25 -7.099999904632568 L 92.2979965209961 -6.790999889373779 L 92.44000244140625 -6.513000011444092 L 92.66200256347656 -6.290999889373779 L 92.94000244140625 -6.14900016784668 L 92.97163391113281 -6.144000053405762 L 93.25 -6.099999904632568 L 93.5274658203125 -6.144000053405762 L 93.55899810791016 -6.14900016784668 M -139.3800048828125 -9.168000221252441 L -139.40650939941406 -9.141490936279297 L -139.76800537109375 -8.779999732971191 L -139.77777099609375 -8.7608642578125 L -140.01699829101562 -8.291999816894531 L -140.03268432617188 -8.192000389099121 L -140.1020050048828 -7.75 L -140.01699829101562 -7.208000183105469 L -139.9980010986328 -7.17075777053833 L -139.76800537109375 -6.71999979019165 L -139.3800048828125 -6.331999778747559 L -139.2906494140625 -6.286410331726074 L -139.26400756835938 -6.272811412811279 L -138.89199829101562 -6.083000183105469 L -138.5984649658203 -6.0364251136779785 L -138.35000610351562 -5.997000217437744 L -137.80799865722656 -6.083000183105469 L -137.32000732421875 -6.331999778747559 L -136.9320068359375 -6.71999979019165 L -136.81781005859375 -6.943795680999756 L -136.68299865722656 -7.208000183105469 L -136.64263916015625 -7.462359428405762 L -136.5970001220703 -7.75 L -136.6363067626953 -7.997736930847168 L -136.66712951660156 -8.192000389099121 L -136.68299865722656 -8.291999816894531 L -136.887451171875 -8.692691802978516 L -136.9320068359375 -8.779999732971191 L -137.32000732421875 -9.168000221252441 L -137.7720184326172 -9.398641586303711 L -137.80799865722656 -9.416999816894531 L -138.35000610351562 -9.501999855041504 L -138.89199829101562 -9.416999816894531 L -139.3800048828125 -9.168000221252441 M 94.20099639892578 -92.98999786376953 L 94.20800018310547 -93.03414154052734 L 94.25 -93.29900360107422 L 94.20800018310547 -93.56471252441406 L 94.20099639892578 -93.60900115966797 L 94.05899810791016 -93.88700103759766 L 93.83699798583984 -94.10900115966797 L 93.64318084716797 -94.20800018310547 L 93.55899810791016 -94.2509994506836 L 93.25 -94.29900360107422 L 92.94000244140625 -94.2509994506836 L 92.85581970214844 -94.20800018310547 L 92.66200256347656 -94.10900115966797 L 92.44000244140625 -93.88700103759766 L 92.2979965209961 -93.60900115966797 L 92.25 -93.29900360107422 L 92.26786041259766 -93.18399810791016 L 92.2979965209961 -92.98999786376953 L 92.44000244140625 -92.71199798583984 L 92.66200256347656 -92.48999786376953 L 92.94000244140625 -92.3479995727539 L 93.25 -92.29900360107422 L 93.55899810791016 -92.3479995727539 L 93.83699798583984 -92.48999786376953 L 94.05899810791016 -92.71199798583984 L 94.20099639892578 -92.98999786376953 M -15.574999809265137 -23.125999450683594 L -14.774999618530273 -23.125999450683594 L -14.774999618530273 -26.225000381469727 L -15.574999809265137 -26.225000381469727 L -15.574999809265137 -27.225000381469727 L -16.384000778198242 -27.225000381469727 L -29.575000762939453 -27.225000381469727 L -29.575000762939453 -26.225000381469727 L -30.375 -26.225000381469727 L -30.375 -23.125999450683594 L -29.575000762939453 -23.125999450683594 L -29.575000762939453 -17.326000213623047 L -30.375 -17.326000213623047 L -30.375 -14.22599983215332 L -29.575000762939453 -14.22599983215332 L -29.575000762939453 -13.22599983215332 L -16.384000778198242 -13.22599983215332 L -15.574999809265137 -13.22599983215332 L -15.574999809265137 -14.22599983215332 L -14.774999618530273 -14.22599983215332 L -14.774999618530273 -16.384000778198242 L -14.774999618530273 -17.326000213623047 L -15.574999809265137 -17.326000213623047 L -15.574999809265137 -23.125999450683594 M -72.2563247680664 -9.141677856445312 L -72.61799621582031 -8.779999732971191 L -72.62741088867188 -8.761552810668945 L -72.86699676513672 -8.291999816894531 L -72.86941528320312 -8.276581764221191 L -72.88268280029297 -8.192000389099121 L -72.9520034790039 -7.75 L -72.86699676513672 -7.208000183105469 L -72.84876251220703 -7.172255516052246 L -72.61799621582031 -6.71999979019165 L -72.57255554199219 -6.674553871154785 L -72.2300033569336 -6.331999778747559 L -72.14200592041016 -6.287099838256836 L -71.74199676513672 -6.083000183105469 L -71.60649871826172 -6.061500072479248 L -71.19999694824219 -5.997000217437744 L -71.02778625488281 -6.024325847625732 L -70.65799713134766 -6.083000183105469 L -70.47496032714844 -6.176394939422607 L -70.16999816894531 -6.331999778747559 L -70.00263977050781 -6.499362468719482 L -69.78199768066406 -6.71999979019165 L -69.6674575805664 -6.944484233856201 L -69.63200378417969 -7.013976097106934 L -69.53299713134766 -7.208000183105469 L -69.4469985961914 -7.75 L -69.51713562011719 -8.192000389099121 L -69.53299713134766 -8.291999816894531 L -69.78199768066406 -8.779999732971191 L -69.92987823486328 -8.927876472473145 L -70.16999816894531 -9.168000221252441 L -70.32493591308594 -9.247055053710938 L -70.62225341796875 -9.398761749267578 L -70.65799713134766 -9.416999816894531 L -71.19999694824219 -9.501999855041504 L -71.74199676513672 -9.416999816894531 L -72.2300033569336 -9.168000221252441 L -72.2563247680664 -9.141677856445312 M -133.3990020751953 -81.91999816894531 L -133.3990020751953 -65.53600311279297 L -133.3990020751953 -32.768001556396484 L -133.3990020751953 -16.384000778198242 L -133.3990020751953 -12.800000190734863 L -131.07200622558594 -12.800000190734863 L -98.30400085449219 -12.800000190734863 L -81.91999816894531 -12.800000190734863 L -76.25 -12.800000190734863 L -76.25 -16.384000778198242 L -76.25 -32.768001556396484 L -76.25 -65.53600311279297 L -76.25 -81.91999816894531 L -76.25 -88.9990005493164 L -81.91999816894531 -88.9990005493164 L -98.30400085449219 -88.9990005493164 L -131.07200622558594 -88.9990005493164 L -133.3990020751953 -88.9990005493164 L -133.3990020751953 -81.91999816894531 M -139.27999877929688 -92.48200225830078 L -139.26400756835938 -92.47383880615234 L -138.79200744628906 -92.23300170898438 L -138.25 -92.14700317382812 L -138.0799560546875 -92.17398071289062 L -137.70799255371094 -92.23300170898438 L -137.47537231445312 -92.35169982910156 L -137.22000122070312 -92.48200225830078 L -136.97547912597656 -92.72651672363281 L -136.83200073242188 -92.87000274658203 L -136.74586486816406 -93.03881072998047 L -136.58299255371094 -93.35800170898438 L -136.4980010986328 -93.9000015258789 L -136.54629516601562 -94.20800018310547 L -136.58299255371094 -94.44200134277344 L -136.83200073242188 -94.93000030517578 L -137.08836364746094 -95.18636322021484 L -137.22000122070312 -95.31800079345703 L -137.4749755859375 -95.44810485839844 L -137.70799255371094 -95.56700134277344 L -137.90249633789062 -95.59750366210938 L -138.25 -95.6520004272461 L -138.79200744628906 -95.56700134277344 L -138.80104064941406 -95.56238555908203 L -139.15988159179688 -95.3792953491211 L -139.26400756835938 -95.32616424560547 L -139.27999877929688 -95.31800079345703 L -139.49305725097656 -95.10494232177734 L -139.66799926757812 -94.93000030517578 L -139.77635192871094 -94.7176513671875 L -139.91700744628906 -94.44200134277344 L -139.95330810546875 -94.2131576538086 L -139.95413208007812 -94.20800018310547 L -140.0030059814453 -93.9000015258789 L -139.95860290527344 -93.62017822265625 L -139.91700744628906 -93.35800170898438 L -139.74468994140625 -93.02030181884766 L -139.66799926757812 -92.87000274658203 L -139.2981719970703 -92.50017547607422 L -139.27999877929688 -92.48200225830078 M -54.888710021972656 -6.719708442687988 L -55.1150016784668 -6.946000099182129 L -55.494781494140625 -7.139782428741455 L -55.60300064086914 -7.195000171661377 L -55.91670608520508 -7.244197845458984 L -56.14500045776367 -7.28000020980835 L -56.40164566040039 -7.239676475524902 L -56.68600082397461 -7.195000171661377 L -56.91217803955078 -7.079829216003418 L -57.17499923706055 -6.946000099182129 L -57.34400177001953 -6.7769999504089355 L -57.5629997253418 -6.558000087738037 L -57.733673095703125 -6.223511695861816 L -57.8120002746582 -6.070000171661377 L -57.89699935913086 -5.5279998779296875 L -57.86473083496094 -5.322248458862305 L -57.8120002746582 -4.986000061035156 L -57.5629997253418 -4.498000144958496 L -57.34400177001953 -4.2789998054504395 L -57.17499923706055 -4.110000133514404 L -57.14750671386719 -4.0960001945495605 L -56.68600082397461 -3.8610000610351562 L -56.14500045776367 -3.7750000953674316 L -55.60300064086914 -3.8610000610351562 L -55.14243698120117 -4.0960001945495605 L -55.1150016784668 -4.110000133514404 L -54.81098937988281 -4.414010047912598 L -54.72700119018555 -4.498000144958496 L -54.54559326171875 -4.853525161743164 L -54.54364776611328 -4.857343673706055 L -54.47800064086914 -4.986000061035156 L -54.391998291015625 -5.5279998779296875 L -54.43506622314453 -5.799413681030273 L -54.47800064086914 -6.070000171661377 L -54.5157585144043 -6.144000053405762 L -54.53321838378906 -6.17821741104126 L -54.72700119018555 -6.558000087738037 L -54.888710021972656 -6.719708442687988 M 90.69000244140625 8.675999641418457 L 90.9990005493164 8.626999855041504 L 91.2770004272461 8.484999656677246 L 91.4990005493164 8.262999534606934 L 91.53526306152344 8.192000389099121 L 91.64099884033203 7.985000133514404 L 91.69000244140625 7.676000118255615 L 91.64099884033203 7.366000175476074 L 91.4990005493164 7.0879998207092285 L 91.2770004272461 6.866000175476074 L 90.9990005493164 6.723999977111816 L 90.69000244140625 6.676000118255615 L 90.37999725341797 6.723999977111816 L 90.11199951171875 6.860892295837402 L 90.10199737548828 6.866000175476074 L 89.87999725341797 7.0879998207092285 L 89.73799896240234 7.366000175476074 L 89.69000244140625 7.676000118255615 L 89.73799896240234 7.985000133514404 L 89.84373474121094 8.192000389099121 L 89.87999725341797 8.262999534606934 L 90.10199737548828 8.484999656677246 L 90.37999725341797 8.626999855041504 L 90.69000244140625 8.675999641418457 M -69.7357177734375 -93.10870361328125 L -69.58300018310547 -93.40799713134766 L -69.55207061767578 -93.6029281616211 L -69.49700164794922 -93.94999694824219 L -69.5379409790039 -94.20800018310547 L -69.58300018310547 -94.49199676513672 L -69.63200378417969 -94.5880355834961 L -69.83200073242188 -94.9800033569336 L -70.22000122070312 -95.36799621582031 L -70.70800018310547 -95.61699676513672 L -70.78508758544922 -95.62908935546875 L -71.19063568115234 -95.69268798828125 L -71.25 -95.7020034790039 L -71.79199981689453 -95.61699676513672 L -72.27999877929688 -95.36799621582031 L -72.66799926757812 -94.9800033569336 L -72.69567108154297 -94.92577362060547 L -72.91699981689453 -94.49199676513672 L -72.92890167236328 -94.41609954833984 L -72.96154022216797 -94.20800018310547 L -73.00199890136719 -93.94999694824219 L -72.91699981689453 -93.40799713134766 L -72.86042785644531 -93.297119140625 L -72.66799926757812 -92.91999816894531 L -72.56338500976562 -92.81538391113281 L -72.27999877929688 -92.53199768066406 L -72.1251220703125 -92.45297241210938 L -71.79199981689453 -92.28299713134766 L -71.59825897216797 -92.25225830078125 L -71.45960998535156 -92.23026275634766 L -71.25 -92.1969985961914 L -70.70800018310547 -92.28299713134766 L -70.22000122070312 -92.53199768066406 L -69.83200073242188 -92.91999816894531 L -69.7357177734375 -93.10870361328125 M 90.9990005493164 94.82599639892578 L 91.2770004272461 94.68399810791016 L 91.4990005493164 94.46199798583984 L 91.62873840332031 94.20800018310547 L 91.64099884033203 94.18399810791016 L 91.69000244140625 93.875 L 91.64099884033203 93.56500244140625 L 91.4990005493164 93.28700256347656 L 91.2770004272461 93.06500244140625 L 90.9990005493164 92.9229965209961 L 90.69000244140625 92.875 L 90.37999725341797 92.9229965209961 L 90.11199951171875 93.05989074707031 L 90.10199737548828 93.06500244140625 L 89.87999725341797 93.28700256347656 L 89.73799896240234 93.56500244140625 L 89.69000244140625 93.875 L 89.73799896240234 94.18399810791016 L 89.87999725341797 94.46199798583984 L 90.10199737548828 94.68399810791016 L 90.11199951171875 94.6891098022461 L 90.37999725341797 94.82599639892578 L 90.69000244140625 94.875 L 90.9990005493164 94.82599639892578 M 23.847999572753906 8.626999855041504 L 24.125999450683594 8.484999656677246 L 24.347999572753906 8.262999534606934 L 24.384265899658203 8.192000389099121 L 24.489999771118164 7.985000133514404 L 24.538999557495117 7.676000118255615 L 24.489999771118164 7.366000175476074 L 24.347999572753906 7.0879998207092285 L 24.125999450683594 6.866000175476074 L 23.847999572753906 6.723999977111816 L 23.538999557495117 6.676000118255615 L 23.229000091552734 6.723999977111816 L 22.951000213623047 6.866000175476074 L 22.729000091552734 7.0879998207092285 L 22.586999893188477 7.366000175476074 L 22.538000106811523 7.676000118255615 L 22.586999893188477 7.985000133514404 L 22.692733764648438 8.192000389099121 L 22.729000091552734 8.262999534606934 L 22.951000213623047 8.484999656677246 L 23.229000091552734 8.626999855041504 L 23.538000106811523 8.675999641418457 L 23.847999572753906 8.626999855041504 M 25.51300048828125 -6.290999889373779 L 25.791000366210938 -6.14900016784668 L 25.82253074645996 -6.144000053405762 L 26.100000381469727 -6.099999904632568 L 26.378366470336914 -6.144000053405762 L 26.40999984741211 -6.14900016784668 L 26.624000549316406 -6.258309364318848 L 26.687999725341797 -6.290999889373779 L 26.90999984741211 -6.513000011444092 L 27.052000045776367 -6.790999889373779 L 27.10099983215332 -7.099999904632568 L 27.052000045776367 -7.409999847412109 L 26.90999984741211 -7.688000202178955 L 26.687999725341797 -7.909999847412109 L 26.624000549316406 -7.942690849304199 L 26.40999984741211 -8.052000045776367 L 26.10099983215332 -8.100000381469727 L 25.791000366210938 -8.052000045776367 L 25.51300048828125 -7.909999847412109 L 25.291000366210938 -7.688000202178955 L 25.14900016784668 -7.409999847412109 L 25.100000381469727 -7.099999904632568 L 25.14900016784668 -6.790999889373779 L 25.291000366210938 -6.513000011444092 L 25.51300048828125 -6.290999889373779 M 23.538000106811523 94.875 L 23.847999572753906 94.82599639892578 L 24.125999450683594 94.68399810791016 L 24.347999572753906 94.46199798583984 L 24.477741241455078 94.20800018310547 L 24.489999771118164 94.18399810791016 L 24.538999557495117 93.875 L 24.489999771118164 93.56500244140625 L 24.347999572753906 93.28700256347656 L 24.125999450683594 93.06500244140625 L 23.847999572753906 92.9229965209961 L 23.538999557495117 92.875 L 23.229000091552734 92.9229965209961 L 22.951000213623047 93.06500244140625 L 22.729000091552734 93.28700256347656 L 22.586999893188477 93.56500244140625 L 22.538000106811523 93.875 L 22.586999893188477 94.18399810791016 L 22.599258422851562 94.20800018310547 L 22.729000091552734 94.46199798583984 L 22.951000213623047 94.68399810791016 L 23.229000091552734 94.82599639892578 L 23.538000106811523 94.875 M 5.427000045776367 -32.768001556396484 L 5.427000045776367 -46.801998138427734 L 0 -46.801998138427734 L -12.57800006866455 -46.801998138427734 L -12.57800006866455 -42.17499923706055 L -12.57800006866455 -33.275001525878906 L -12.57800006866455 -32.768001556396484 L -12.57800006866455 -31.79800033569336 L 0 -31.79800033569336 L 5.427000045776367 -31.79800033569336 L 5.427000045776367 -32.768001556396484 M -98.30400085449219 88.19999694824219 L -81.91999816894531 88.19999694824219 L -74.55000305175781 88.19999694824219 L -74.55000305175781 81.91999816894531 L -74.55000305175781 65.53600311279297 L -74.55000305175781 32.768001556396484 L -74.55000305175781 16.384000778198242 L -74.55000305175781 12.00100040435791 L -81.91999816894531 12.00100040435791 L -98.30400085449219 12.00100040435791 L -131.07200622558594 12.00100040435791 L -131.69900512695312 12.00100040435791 L -131.69900512695312 14.095999717712402 L -131.69900512695312 16.384000778198242 L -131.69900512695312 32.768001556396484 L -131.69900512695312 65.53600311279297 L -131.69900512695312 81.91999816894531 L -131.69900512695312 88.19999694824219 L -131.07200622558594 88.19999694824219 L -98.30400085449219 88.19999694824219 M -12.57800006866455 -26.225000381469727 L -12.57800006866455 -23.125999450683594 L -12.57800006866455 -17.326000213623047 L -12.57800006866455 -16.384000778198242 L -12.57800006866455 -14.22599983215332 L -12.57800006866455 -12.79699993133545 L 0 -12.79699993133545 L 5.427000045776367 -12.79699993133545 L 5.427000045776367 -16.384000778198242 L 5.427000045776367 -27.80299949645996 L 0 -27.80299949645996 L -12.57800006866455 -27.80299949645996 L -12.57800006866455 -26.225000381469727 z" fill="none" stroke="rgb(0,0,255)" stroke-width="0.01mm" />
</svg>